<svg width="23" height="23" viewBox="0 0 23 23" fill="none" xmlns="http://www.w3.org/2000/svg">
<path d="M15.9248 22.1215L12.0201 18.0051V0.520374C12.0201 0.233009 11.7871 0 11.4998 0C11.2124 0 10.9794 0.233009 10.9794 0.520374V18.0051L7.07473 22.1215C6.87694 22.33 6.88561 22.6593 7.09414 22.8571C7.30258 23.055 7.63203 23.0462 7.82978 22.8377L10.9794 19.5173V22.4796C10.9794 22.767 11.2124 23 11.4998 23C11.7871 23 12.0201 22.767 12.0201 22.4796V19.5173L15.1697 22.8377C15.272 22.9456 15.4095 23 15.5473 23C15.6759 23 15.8047 22.9526 15.9054 22.8571C16.1139 22.6593 16.1226 22.33 15.9248 22.1215Z" fill="#181818"/>
<path d="M21.4388 1.56108H1.56104V15.0904H21.4388V1.56108Z" fill="#BEC8D6"/>
<path d="M21.9591 15.6108H1.04064C0.753273 15.6108 0.520264 15.3778 0.520264 15.0904C0.520264 14.8031 0.753273 14.5701 1.04064 14.5701H21.9591C22.2465 14.5701 22.4795 14.8031 22.4795 15.0904C22.4795 15.3778 22.2466 15.6108 21.9591 15.6108Z" fill="#4C5870"/>
</svg>
