<svg width="26" height="26" viewBox="0 0 26 26" fill="none" xmlns="http://www.w3.org/2000/svg">
<path d="M1.37307 14.4922C1.28843 14.5769 1.17362 14.6244 1.05392 14.6244C0.934213 14.6244 0.819409 14.5769 0.734763 14.4922C0.650117 14.4076 0.602564 14.2928 0.602564 14.1731V11.9842C0.602564 11.8645 0.650117 11.7497 0.734763 11.665C0.819409 11.5804 0.934213 11.5328 1.05392 11.5328C1.17362 11.5328 1.28843 11.5804 1.37307 11.665C1.45772 11.7497 1.50527 11.8645 1.50527 11.9842V14.1731C1.50527 14.2928 1.45772 14.4076 1.37307 14.4922Z" fill="black" stroke="black" stroke-width="0.2"/>
<path d="M24.9455 22.7129H1.05363C0.933926 22.7129 0.819124 22.6653 0.73448 22.5807C0.649834 22.496 0.60228 22.3812 0.60228 22.2615V19.8794C0.60228 19.7597 0.649834 19.6449 0.734478 19.5602C0.819124 19.4756 0.933926 19.428 1.05363 19.428C1.17334 19.428 1.28814 19.4756 1.37279 19.5602C1.45743 19.6449 1.50498 19.7597 1.50498 19.8794V21.8102H24.4942V7.80856H23.115C22.9953 7.80856 22.8805 7.76101 22.7958 7.67636C22.7112 7.59172 22.6636 7.47692 22.6636 7.35721C22.6636 7.2375 22.7112 7.1227 22.7958 7.03806C22.8805 6.95341 22.9953 6.90586 23.115 6.90586H24.9455C25.0652 6.90586 25.18 6.95341 25.2647 7.03806C25.3493 7.1227 25.3969 7.2375 25.3969 7.35721V22.2615C25.3969 22.3812 25.3493 22.496 25.2647 22.5807C25.18 22.6653 25.0652 22.7129 24.9455 22.7129Z" fill="black" stroke="black" stroke-width="0.2"/>
<path d="M1.37307 18.442C1.28843 18.5267 1.17363 18.5742 1.05392 18.5742C0.934212 18.5742 0.819408 18.5267 0.734763 18.442C0.650118 18.3574 0.602564 18.2426 0.602564 18.1229V15.9305C0.602564 15.8107 0.650117 15.6959 0.734763 15.6113C0.819409 15.5267 0.934213 15.4791 1.05392 15.4791C1.17363 15.4791 1.28843 15.5267 1.37307 15.6113C1.45772 15.6959 1.50527 15.8107 1.50527 15.9305V18.1229C1.50527 18.2426 1.45772 18.3574 1.37307 18.442Z" fill="black" stroke="black" stroke-width="0.2"/>
<path d="M1.37262 10.5469C1.28798 10.6316 1.17317 10.6791 1.05347 10.6791C0.93376 10.6791 0.818957 10.6316 0.734313 10.5469C0.649668 10.4623 0.602116 10.3475 0.602116 10.2278V7.35721C0.602116 7.23751 0.649668 7.1227 0.734313 7.03806C0.818958 6.95341 0.933761 6.90586 1.05347 6.90586H2.884C3.00371 6.90586 3.11851 6.95341 3.20315 7.03806C3.2878 7.1227 3.33535 7.23751 3.33535 7.35721C3.33535 7.47692 3.2878 7.59172 3.20315 7.67637C3.11851 7.76101 3.00371 7.80856 2.884 7.80856H1.50482V10.2278C1.50482 10.3475 1.45726 10.4623 1.37262 10.5469Z" fill="black" stroke="black" stroke-width="0.2"/>
<path d="M23.1174 20.7947H2.88132C2.76161 20.7947 2.64681 20.7471 2.56216 20.6625C2.47752 20.5779 2.42997 20.4631 2.42997 20.3434V5.66776C2.42997 5.54805 2.47752 5.43325 2.56216 5.3486C2.64681 5.26396 2.76161 5.21641 2.88132 5.21641H4.73997C4.85967 5.21641 4.97447 5.26396 5.05912 5.3486C5.14376 5.43325 5.19132 5.54805 5.19132 5.66776C5.19132 5.78746 5.14376 5.90227 5.05912 5.98691C4.97448 6.07156 4.85967 6.11911 4.73997 6.11911H3.33267V19.892H22.666V6.11911H21.2605C21.1408 6.11911 21.026 6.07156 20.9414 5.98691C20.8567 5.90227 20.8092 5.78746 20.8092 5.66776C20.8092 5.54805 20.8567 5.43325 20.9414 5.3486C21.026 5.26396 21.1408 5.21641 21.2605 5.21641H23.1174C23.2371 5.21641 23.3519 5.26396 23.4366 5.3486C23.5212 5.43325 23.5688 5.54805 23.5688 5.66776V20.3434C23.5688 20.4631 23.5212 20.5779 23.4366 20.6625C23.3519 20.7471 23.2371 20.7947 23.1174 20.7947Z" fill="#149BB4" stroke="#149BB4" stroke-width="0.2"/>
<path d="M13.0002 20.7973C13.1199 20.7973 13.2347 20.7498 13.3194 20.6652C13.404 20.5805 13.4516 20.4657 13.4516 20.346V7.35549C13.4516 7.35549 13.4516 7.35549 13.4516 7.35548C13.4516 7.23909 13.4066 7.12719 13.3261 7.04316M13.0002 20.7973L4.727 3.99745C8.48392 3.8798 11.2212 4.84589 13.3261 7.04316M13.0002 20.7973C12.8805 20.7973 12.7657 20.7498 12.6811 20.6652C12.5964 20.5805 12.5489 20.4657 12.5489 20.346V7.53895C10.7373 5.71939 8.39449 4.87043 5.19235 4.89145V18.305C5.19235 18.4247 5.14479 18.5395 5.06015 18.6242C4.9755 18.7088 4.8607 18.7563 4.74099 18.7563C4.62129 18.7563 4.50648 18.7088 4.42184 18.6242C4.3372 18.5395 4.28964 18.4247 4.28964 18.305V4.4488C4.28964 4.44879 4.28964 4.44877 4.28964 4.44875C4.2896 4.33145 4.33523 4.21874 4.41686 4.1345C4.49849 4.05025 4.60972 4.0011 4.72697 3.99745L13.0002 20.7973ZM13.3261 7.04316L13.2539 7.11233L13.3261 7.04317C13.3261 7.04317 13.3261 7.04316 13.3261 7.04316Z" fill="black" stroke="black" stroke-width="0.2"/>
<path d="M21.2765 3.99827C21.3938 4.00181 21.5052 4.05091 21.5869 4.13516C21.6686 4.21942 21.7143 4.33219 21.7143 4.44958C21.7143 4.44959 21.7143 4.44961 21.7143 4.44962L21.7143 18.3058C21.7143 18.4255 21.6667 18.5403 21.5821 18.625C21.4974 18.7096 21.3826 18.7572 21.2629 18.7572C21.1432 18.7572 21.0284 18.7096 20.9438 18.625C20.8591 18.5403 20.8116 18.4255 20.8116 18.3058V4.89232C17.6164 4.8617 15.2654 5.71964 13.4515 7.54014V20.3468C13.4515 20.4665 13.404 20.5813 13.3193 20.666C13.2347 20.7506 13.1199 20.7982 13.0002 20.7982C12.8805 20.7982 12.7657 20.7506 12.681 20.666C12.5964 20.5813 12.5488 20.4665 12.5488 20.3468V7.35632C12.5488 7.23992 12.5938 7.12802 12.6743 7.04398L12.6743 7.04394C14.782 4.84707 17.5217 3.88168 21.2765 3.99827ZM21.2765 3.99827C21.2765 3.99827 21.2765 3.99827 21.2764 3.99827L21.2734 4.09822M21.2765 3.99827C21.2765 3.99827 21.2765 3.99827 21.2766 3.99827L21.2734 4.09822M21.2734 4.09822C21.3648 4.10097 21.4515 4.13919 21.5151 4.20479C21.5787 4.27038 21.6143 4.35819 21.6143 4.44958L12.7465 7.11317C14.83 4.94147 17.5396 3.98228 21.2734 4.09822Z" fill="black" stroke="black" stroke-width="0.2"/>
<path d="M4.69371 18.6526C4.6017 18.64 4.5184 18.5916 4.46202 18.5178C4.40565 18.444 4.38078 18.3509 4.39285 18.2588C4.40492 18.1667 4.45296 18.0832 4.52645 18.0264C4.59995 17.9696 4.69292 17.9443 4.78506 17.9559C5.01484 17.9861 10.4499 18.7085 13.1553 20.0313L4.69371 18.6526ZM4.69371 18.6526C4.74922 18.66 10.2451 19.3904 12.8451 20.6627L4.69371 18.6526ZM12.8011 20.7525C11.5139 20.1226 9.50141 19.6239 7.79551 19.2814C6.09295 18.9395 4.70772 18.7553 4.68055 18.7517L4.68054 18.7517L4.68019 18.7517C4.56199 18.7356 4.45498 18.6733 4.38256 18.5785C4.31014 18.4837 4.27819 18.3641 4.2937 18.2458C4.30921 18.1275 4.37091 18.0202 4.46532 17.9473C4.55974 17.8743 4.67918 17.8418 4.79754 17.8567L4.7981 17.8567C4.91409 17.872 6.33283 18.0605 8.06169 18.4108C9.78772 18.7606 11.8339 19.2739 13.1991 19.9414C13.2911 19.986 13.3653 20.0606 13.4094 20.1529C13.4535 20.2452 13.465 20.3499 13.4418 20.4496C13.4187 20.5493 13.3623 20.6382 13.282 20.7016L13.2206 20.624L13.282 20.7016C13.2018 20.7651 13.1024 20.7993 13.0001 20.7989L12.8011 20.7525Z" fill="black" stroke="black" stroke-width="0.2"/>
<path d="M13.198 20.7532L13.1983 20.753C14.4872 20.1228 16.5 19.6241 18.2057 19.2816C19.8738 18.9466 21.2366 18.7633 21.316 18.7526C21.3177 18.7524 21.3187 18.7522 21.3193 18.7522L21.3058 18.6531L21.3182 18.7523C21.3773 18.7449 21.4342 18.7259 21.4859 18.6964C21.5375 18.6669 21.5828 18.6274 21.6191 18.5804C21.6555 18.5333 21.6822 18.4795 21.6977 18.4221C21.7132 18.3647 21.7172 18.3048 21.7095 18.2458C21.7017 18.1868 21.6824 18.13 21.6526 18.0785C21.6229 18.027 21.5832 17.9819 21.5359 17.9458C21.4887 17.9097 21.4348 17.8833 21.3773 17.8681C21.3198 17.8529 21.26 17.8492 21.2011 17.8572M13.198 20.7532L21.2144 17.9564M13.198 20.7532C13.1494 20.7767 13.0971 20.7913 13.0436 20.7963M13.198 20.7532L13.0436 20.7963M21.2011 17.8572C21.2011 17.8572 21.201 17.8573 21.2009 17.8573L21.2144 17.9564M21.2011 17.8572C21.2012 17.8572 21.2013 17.8572 21.2014 17.8572L21.2144 17.9564M21.2011 17.8572C21.0834 17.8727 19.6656 18.0612 17.9381 18.4113C16.2121 18.7611 14.166 19.2744 12.8006 19.942M21.2144 17.9564C20.9846 17.9866 15.5503 18.709 12.8445 20.0318M12.8006 19.942C12.8007 19.9419 12.8008 19.9418 12.8009 19.9418L12.8445 20.0318M12.8006 19.942C12.7087 19.9866 12.6346 20.0611 12.5905 20.1533C12.5463 20.2456 12.5349 20.3502 12.558 20.4498C12.581 20.5495 12.6373 20.6384 12.7175 20.7019C12.7978 20.7654 12.8972 20.7998 12.9995 20.7994L13.0408 20.7992L13.0436 20.7963M12.8006 19.942L12.8445 20.0318M12.8445 20.0318L13.0436 20.7963" fill="black" stroke="black" stroke-width="0.2"/>
<path d="M11.4587 9.7945L11.5177 9.87284C11.5961 9.81384 11.6531 9.73088 11.6802 9.63654C11.7072 9.5422 11.7028 9.44161 11.6675 9.35002C11.6323 9.25856 11.5683 9.18105 11.4852 9.1292C9.97827 8.17375 8.24265 7.64006 6.45928 7.58379L6.45902 7.58378C6.33933 7.58031 6.22316 7.62453 6.13607 7.70671C6.04898 7.7889 5.9981 7.90231 5.99463 8.022C5.99116 8.1417 6.03538 8.25787 6.11756 8.34496C6.19971 8.43201 6.31306 8.48289 6.43269 8.4864M11.4587 9.7945L6.43575 8.38644M11.4587 9.7945L11.5177 9.87284C11.4392 9.93185 11.3437 9.96368 11.2456 9.96352M11.4587 9.7945L11.432 9.21387C11.4968 9.25424 11.5468 9.31465 11.5742 9.38595C11.6016 9.45724 11.6051 9.53554 11.5841 9.60898C11.563 9.68242 11.5186 9.747 11.4575 9.79293C11.3965 9.83886 11.3221 9.86364 11.2457 9.86352M6.43269 8.4864C6.43275 8.4864 6.4328 8.4864 6.43285 8.4864L6.43575 8.38644M6.43269 8.4864C6.43264 8.4864 6.43259 8.48639 6.43254 8.48639L6.43575 8.38644M6.43269 8.4864C8.05602 8.53848 9.63566 9.025 11.007 9.89525L11.0079 9.89582L11.0079 9.89582C11.0793 9.94006 11.1616 9.96351 11.2456 9.96352M6.43575 8.38644C8.077 8.43907 9.6741 8.93095 11.0606 9.81082C11.1162 9.84528 11.1803 9.86354 11.2457 9.86352M11.2456 9.96352L11.2457 9.86352M11.2456 9.96352C11.2456 9.96352 11.2457 9.96352 11.2458 9.96352L11.2457 9.86352" fill="black" stroke="black" stroke-width="0.2"/>
<path d="M5.99493 10.458C5.9952 10.3984 6.00754 10.3394 6.03122 10.2846C6.05508 10.2295 6.08995 10.1797 6.1337 10.1385C6.17744 10.0973 6.22914 10.0654 6.28562 10.0448C6.34168 10.0244 6.40128 10.0156 6.46083 10.0188C8.24349 10.0751 9.97848 10.6083 11.4851 11.5628C11.5683 11.6146 11.6323 11.6921 11.6675 11.7836C11.7028 11.8752 11.7072 11.9758 11.6802 12.0701C11.6531 12.1645 11.5961 12.2474 11.5177 12.3064C11.4393 12.3653 11.344 12.3972 11.246 12.3971C11.1623 12.3976 11.0801 12.3748 11.0085 12.3312L11.0085 12.3312L6.43538 10.8211L6.43233 10.921C6.4323 10.921 6.43227 10.921 6.43224 10.921C6.31271 10.9174 6.19952 10.8664 6.11753 10.7793C6.03584 10.6926 5.99179 10.5771 5.99493 10.458ZM5.99493 10.458C5.99492 10.4585 5.99492 10.4589 5.99492 10.4594L6.09492 10.4595L5.99497 10.4566C5.99495 10.4571 5.99494 10.4575 5.99493 10.458Z" fill="#149BB4" stroke="#149BB4" stroke-width="0.2"/>
<path d="M6.4327 13.3536C6.37348 13.3518 6.31519 13.3385 6.26114 13.3142C6.20704 13.29 6.15825 13.2553 6.11756 13.2121C6.07687 13.169 6.04506 13.1183 6.02397 13.0629C6.00288 13.0075 5.99291 12.9485 5.99463 12.8892C5.99635 12.8299 6.00972 12.7716 6.03399 12.7175C6.05826 12.6634 6.09294 12.6146 6.13607 12.5739C6.17919 12.5332 6.2299 12.5014 6.28532 12.4803C6.34073 12.4592 6.39976 12.4493 6.45902 12.451L6.45928 12.451C8.24265 12.5073 9.97827 13.0409 11.4852 13.9964C11.5683 14.0482 11.6323 14.1257 11.6675 14.2172C11.7028 14.3088 11.7072 14.4094 11.6802 14.5037C11.6531 14.5981 11.5961 14.681 11.5177 14.74L11.4575 14.6601L6.43285 13.3536C6.4328 13.3536 6.43275 13.3536 6.4327 13.3536ZM6.4327 13.3536C8.05606 13.4054 9.63575 13.892 11.007 14.7624L11.0079 14.763L11.0079 14.763C11.0793 14.8072 11.1616 14.8307 11.2456 14.8307M6.4327 13.3536L11.2456 14.8307M11.2456 14.8307C11.2456 14.8307 11.2457 14.8307 11.2458 14.8307L11.2457 14.7307L11.2456 14.8307Z" fill="black" stroke="black" stroke-width="0.2"/>
<path d="M11.4589 17.0936L11.5188 17.1737C11.5977 17.1146 11.6551 17.0313 11.6822 16.9366C11.7093 16.8418 11.7047 16.7408 11.669 16.649C11.6334 16.5573 11.5688 16.4798 11.4851 16.4282C9.97833 15.4728 8.24282 14.9391 6.45953 14.8826L6.45926 14.8826C6.39999 14.8809 6.34097 14.8909 6.28555 14.912C6.23014 14.933 6.17943 14.9648 6.1363 15.0055C6.09318 15.0462 6.05849 15.095 6.03423 15.1491C6.00996 15.2032 5.99658 15.2616 5.99486 15.3208C5.99314 15.3801 6.00312 15.4391 6.02421 15.4945C6.0453 15.5499 6.0771 15.6007 6.11779 15.6438C6.15849 15.6869 6.20727 15.7216 6.26137 15.7459C6.31542 15.7701 6.37371 15.7835 6.43292 15.7852M11.4589 17.0936L11.5188 17.1737C11.44 17.2327 11.344 17.2643 11.2455 17.2637C11.1614 17.2635 11.0791 17.2397 11.0078 17.1951L11.0078 17.1951L11.0072 17.1948C9.63595 16.3243 8.05631 15.8375 6.43292 15.7852M11.4589 17.0936C11.5203 17.0476 11.5649 16.9828 11.586 16.9091C11.6072 16.8353 11.6035 16.7567 11.5758 16.6852C11.548 16.6137 11.4976 16.5532 11.4322 16.513L11.0608 17.1103C11.1164 17.1451 11.1805 17.1636 11.246 17.1637C11.3227 17.1642 11.3975 17.1396 11.4589 17.0936ZM6.43292 15.7852C6.43298 15.7852 6.43303 15.7852 6.43308 15.7852L6.43598 15.6853L6.43276 15.7852C6.43282 15.7852 6.43287 15.7852 6.43292 15.7852Z" fill="#149BB4" stroke="#149BB4" stroke-width="0.2"/>
<path d="M14.7533 9.86342C14.8188 9.86333 14.8829 9.84495 14.9385 9.81036M14.7533 9.86342L14.7535 9.96342C14.8376 9.9633 14.92 9.93969 14.9913 9.89526L14.9921 9.8948C16.3635 9.02451 17.9432 8.53799 19.5665 8.48594C19.6861 8.48233 19.7993 8.43143 19.8814 8.34439C19.9635 8.25729 20.0076 8.14115 20.0041 8.0215L20.0041 8.02021L20.0041 8.02022C19.999 7.90151 19.9479 7.78945 19.8614 7.70791C19.775 7.62637 19.6602 7.58178 19.5414 7.58365L19.5398 7.58367L19.5398 7.58369C17.7563 7.63996 16.0205 8.17373 14.5136 9.12932C14.4306 9.18117 14.3667 9.25859 14.3316 9.34992C14.2963 9.44151 14.2919 9.54209 14.3189 9.63643C14.3459 9.73078 14.403 9.81373 14.4814 9.87274L14.9385 9.81036M14.7533 9.86342C14.6769 9.86354 14.6026 9.83876 14.5415 9.79283C14.4805 9.7469 14.4361 9.68232 14.415 9.60888C14.394 9.53544 14.3974 9.45714 14.4249 9.38584C14.4523 9.31455 14.5023 9.25414 14.5671 9.21377L14.7535 9.96342L14.7533 9.86342ZM14.9385 9.81036C16.325 8.9305 17.9221 8.43862 19.5633 8.38599L14.9385 9.81036Z" fill="black" stroke="black" stroke-width="0.2"/>
<path d="M14.7533 12.2977C14.8188 12.2976 14.8829 12.2792 14.9385 12.2446M14.7533 12.2977L14.7535 12.3977C14.8376 12.3975 14.92 12.3739 14.9913 12.3295L14.9921 12.329C16.3637 11.4588 17.9434 10.9722 19.5669 10.9198C19.6864 10.9161 19.7996 10.8652 19.8815 10.7781C19.9634 10.6912 20.0075 10.5754 20.0041 10.4561C20.0031 10.3966 19.9903 10.338 19.9663 10.2836C19.9422 10.229 19.9074 10.1797 19.864 10.1388C19.8205 10.0978 19.7693 10.066 19.7134 10.0452C19.6576 10.0245 19.5983 10.0151 19.5389 10.0176M14.7533 12.2977C14.6769 12.2978 14.6026 12.273 14.5415 12.2271C14.4805 12.1811 14.4361 12.1166 14.415 12.0431C14.394 11.9697 14.3974 11.8914 14.4249 11.8201C14.4523 11.7488 14.5023 11.6884 14.5671 11.648L14.7535 12.3977L14.7533 12.2977ZM14.9385 12.2446L14.4814 12.307C14.403 12.248 14.3459 12.165 14.3189 12.0707C14.2919 11.9763 14.2963 11.8757 14.3316 11.7842C14.3667 11.6928 14.4306 11.6154 14.5136 11.5635C16.0203 10.6082 17.7557 10.0743 19.5389 10.0176M14.9385 12.2446C16.3252 11.3648 17.9223 10.8728 19.5637 10.8199L14.9385 12.2446ZM19.5389 10.0176C19.5391 10.0176 19.5392 10.0176 19.5394 10.0176L19.5426 10.1175L19.5389 10.0176Z" fill="#149BB4" stroke="#149BB4" stroke-width="0.2"/>
<path d="M19.564 13.2536L19.5672 13.3536C17.9437 13.4054 16.364 13.892 14.9927 14.7624L14.992 14.7629C14.9206 14.8073 14.8382 14.831 14.7541 14.8311L14.654 14.8312V14.8196C14.592 14.8056 14.5334 14.7787 14.482 14.74C14.4036 14.681 14.3466 14.5981 14.3195 14.5037C14.2925 14.4094 14.2969 14.3088 14.3322 14.2172C14.3673 14.1259 14.4312 14.0485 14.5142 13.9966C16.0212 13.041 17.7569 12.5073 19.5404 12.451L19.5404 12.451L19.5407 12.451C19.6604 12.4475 19.7766 12.4917 19.8636 12.5739C19.9507 12.6561 20.0016 12.7695 20.0051 12.8892C20.0086 13.0089 19.9643 13.1251 19.8822 13.2122C19.8 13.2992 19.6866 13.3501 19.5669 13.3536L19.564 13.2536ZM19.564 13.2536C19.6571 13.2509 19.7454 13.2113 19.8094 13.1435C19.8734 13.0757 19.9078 12.9853 19.9051 12.8921C19.9024 12.7989 19.8628 12.7106 19.795 12.6466C19.7272 12.5827 19.6368 12.5482 19.5436 12.5509L14.754 14.7311H14.854V14.7307V14.7164C14.8838 14.7075 14.9125 14.6946 14.9391 14.678C16.3255 13.7979 17.9227 13.306 19.564 13.2536Z" fill="black" stroke="black" stroke-width="0.2"/>
<path d="M14.7535 17.2645L14.6533 17.2647V17.2524C14.5914 17.2384 14.5328 17.2114 14.4814 17.1728C14.403 17.1138 14.3459 17.0308 14.3189 16.9365C14.2919 16.8422 14.2963 16.7416 14.3316 16.65C14.3667 16.5586 14.4306 16.4812 14.5136 16.4294C16.0207 15.4741 17.7564 14.9406 19.5398 14.8844L19.5398 14.8844L19.5418 14.8844C19.6604 14.883 19.775 14.9278 19.8612 15.0092C19.9475 15.0907 19.9987 15.2025 20.0041 15.321L20.0041 15.321L20.0041 15.3227C20.0075 15.4423 19.9633 15.5583 19.8812 15.6453C19.7992 15.7322 19.686 15.7831 19.5666 15.7867C17.9431 15.8389 16.3634 16.3255 14.9921 17.1959L14.9913 17.1964C14.92 17.2408 14.8376 17.2644 14.7535 17.2645Z" fill="#149BB4" stroke="#149BB4" stroke-width="0.2"/>
</svg>
