<svg width="18" height="19" viewBox="0 0 18 19" fill="none" xmlns="http://www.w3.org/2000/svg">
<mask id="path-1-inside-1_823_613" fill="white">
<path fill-rule="evenodd" clip-rule="evenodd" d="M9 0C8.84509 0 8.69936 0.0502027 8.5935 0.0944481C8.4769 0.143179 8.35231 0.209341 8.22536 0.284607C7.97085 0.435495 7.66916 0.645603 7.34121 0.891491C6.68333 1.38474 5.88203 2.0506 5.07306 2.74965C3.45316 4.14941 1.77474 5.70641 1.09601 6.34132C0.792647 6.6251 0.625 7.01947 0.625 7.43073V17C0.625 17.8822 1.40953 18.5 2.25 18.5H15.75C16.5905 18.5 17.375 17.8822 17.375 17V7.43073C17.375 7.01947 17.2074 6.6251 16.904 6.34132C16.2253 5.70641 14.5468 4.14941 12.9269 2.74964C12.118 2.0506 11.3167 1.38474 10.6588 0.891491C10.3308 0.645602 10.0291 0.435495 9.77464 0.284607C9.64769 0.209341 9.5231 0.143179 9.4065 0.0944481C9.30064 0.0502027 9.15491 0 9 0ZM1.77915 7.07161C2.45526 6.43915 4.1222 4.89292 5.72688 3.50629C6.5302 2.81214 7.31098 2.16401 7.94109 1.69158C8.25713 1.45463 8.5259 1.26897 8.73534 1.1448C8.84036 1.08253 8.92112 1.04135 8.97911 1.01711C8.98699 1.01382 8.99394 1.01105 9 1.00874C9.00606 1.01105 9.01301 1.01382 9.02089 1.01711C9.07888 1.04135 9.15964 1.08253 9.26466 1.1448C9.4741 1.26897 9.74287 1.45463 10.0589 1.69158C10.689 2.16401 11.4698 2.81214 12.2731 3.50629C13.8778 4.89292 15.5447 6.43915 16.2208 7.07161C16.3191 7.16348 16.375 7.29211 16.375 7.43073V17C16.375 17.2224 16.1522 17.5 15.75 17.5H2.25C1.84783 17.5 1.625 17.2224 1.625 17V7.43073C1.625 7.29211 1.68094 7.16348 1.77915 7.07161ZM9.5 10.5C9.5 10.2239 9.27614 10 9 10C8.72386 10 8.5 10.2239 8.5 10.5V16.5C8.5 16.7761 8.72386 17 9 17C9.27614 17 9.5 16.7761 9.5 16.5V10.5Z"/>
</mask>
<path fill-rule="evenodd" clip-rule="evenodd" d="M9 0C8.84509 0 8.69936 0.0502027 8.5935 0.0944481C8.4769 0.143179 8.35231 0.209341 8.22536 0.284607C7.97085 0.435495 7.66916 0.645603 7.34121 0.891491C6.68333 1.38474 5.88203 2.0506 5.07306 2.74965C3.45316 4.14941 1.77474 5.70641 1.09601 6.34132C0.792647 6.6251 0.625 7.01947 0.625 7.43073V17C0.625 17.8822 1.40953 18.5 2.25 18.5H15.75C16.5905 18.5 17.375 17.8822 17.375 17V7.43073C17.375 7.01947 17.2074 6.6251 16.904 6.34132C16.2253 5.70641 14.5468 4.14941 12.9269 2.74964C12.118 2.0506 11.3167 1.38474 10.6588 0.891491C10.3308 0.645602 10.0291 0.435495 9.77464 0.284607C9.64769 0.209341 9.5231 0.143179 9.4065 0.0944481C9.30064 0.0502027 9.15491 0 9 0ZM1.77915 7.07161C2.45526 6.43915 4.1222 4.89292 5.72688 3.50629C6.5302 2.81214 7.31098 2.16401 7.94109 1.69158C8.25713 1.45463 8.5259 1.26897 8.73534 1.1448C8.84036 1.08253 8.92112 1.04135 8.97911 1.01711C8.98699 1.01382 8.99394 1.01105 9 1.00874C9.00606 1.01105 9.01301 1.01382 9.02089 1.01711C9.07888 1.04135 9.15964 1.08253 9.26466 1.1448C9.4741 1.26897 9.74287 1.45463 10.0589 1.69158C10.689 2.16401 11.4698 2.81214 12.2731 3.50629C13.8778 4.89292 15.5447 6.43915 16.2208 7.07161C16.3191 7.16348 16.375 7.29211 16.375 7.43073V17C16.375 17.2224 16.1522 17.5 15.75 17.5H2.25C1.84783 17.5 1.625 17.2224 1.625 17V7.43073C1.625 7.29211 1.68094 7.16348 1.77915 7.07161ZM9.5 10.5C9.5 10.2239 9.27614 10 9 10C8.72386 10 8.5 10.2239 8.5 10.5V16.5C8.5 16.7761 8.72386 17 9 17C9.27614 17 9.5 16.7761 9.5 16.5V10.5Z" fill="#9E9EA7"/>
<path d="M8.5935 0.0944481L8.20788 -0.828211L8.20788 -0.82821L8.5935 0.0944481ZM8.22536 0.284607L7.71539 -0.575583L7.71539 -0.575582L8.22536 0.284607ZM7.34121 0.891491L7.94109 1.69158L7.94109 1.69158L7.34121 0.891491ZM5.07306 2.74965L5.72688 3.50629L5.72688 3.50629L5.07306 2.74965ZM1.09601 6.34132L1.77915 7.07161L1.77915 7.07161L1.09601 6.34132ZM16.904 6.34132L17.5871 5.61104L17.5871 5.61104L16.904 6.34132ZM12.9269 2.74964L13.5808 1.993L13.5808 1.993L12.9269 2.74964ZM10.6588 0.891491L10.0589 1.69158L10.0589 1.69158L10.6588 0.891491ZM9.77464 0.284607L10.2846 -0.575582L10.2846 -0.575583L9.77464 0.284607ZM9.4065 0.0944481L9.02089 1.01711L9.02089 1.01711L9.4065 0.0944481ZM5.72688 3.50629L5.07306 2.74965L5.72688 3.50629ZM1.77915 7.07161L2.46229 7.8019L2.46229 7.8019L1.77915 7.07161ZM7.94109 1.69158L7.34121 0.891491L7.34121 0.891491L7.94109 1.69158ZM8.73534 1.1448L8.22536 0.284606L8.22536 0.284607L8.73534 1.1448ZM8.97911 1.01711L9.36473 1.93977L9.36476 1.93975L8.97911 1.01711ZM9 1.00874L9.35618 0.0743241L9 -0.0614418L8.64382 0.0743241L9 1.00874ZM9.02089 1.01711L8.63524 1.93975L8.63527 1.93977L9.02089 1.01711ZM9.26466 1.1448L8.75469 2.00498L8.75469 2.00499L9.26466 1.1448ZM10.0589 1.69158L9.45903 2.49167L9.45903 2.49167L10.0589 1.69158ZM12.2731 3.50629L12.9269 2.74964L12.2731 3.50629ZM16.2208 7.07161L15.5377 7.8019L15.5377 7.8019L16.2208 7.07161ZM8.97911 1.01711C8.99249 1.01152 9.00343 1.00729 9.01266 1.00403C9.02192 1.00077 9.02818 0.99893 9.03175 0.997996C9.03535 0.997052 9.03464 0.997441 9.02999 0.998117C9.02533 0.998796 9.01508 1 9 1V-1C8.64503 -1 8.35225 -0.888548 8.20788 -0.828211L8.97911 1.01711ZM8.73533 1.1448C8.84029 1.08257 8.92107 1.04136 8.97911 1.01711L8.20788 -0.82821C8.03272 -0.755006 7.86434 -0.66389 7.71539 -0.575583L8.73533 1.1448ZM7.94109 1.69158C8.25709 1.45465 8.52588 1.26898 8.73534 1.1448L7.71539 -0.575582C7.41583 -0.397986 7.08123 -0.163445 6.74133 0.0914017L7.94109 1.69158ZM5.72688 3.50629C6.53019 2.81214 7.31098 2.16402 7.94109 1.69158L6.74133 0.0914013C6.05569 0.60547 5.23386 1.28907 4.41923 1.993L5.72688 3.50629ZM1.77915 7.07161C2.45525 6.43915 4.12219 4.89292 5.72688 3.50629L4.41923 1.993C2.78413 3.4059 1.09424 4.97366 0.412869 5.61104L1.77915 7.07161ZM1.625 7.43073C1.625 7.29201 1.68101 7.16342 1.77915 7.07161L0.41287 5.61104C-0.0957104 6.08678 -0.375 6.74693 -0.375 7.43073H1.625ZM1.625 17V7.43073H-0.375V17H1.625ZM2.25 17.5C2.06895 17.5 1.89835 17.4315 1.7825 17.3297C1.67523 17.2354 1.625 17.1253 1.625 17H-0.375C-0.375 18.5518 0.982382 19.5 2.25 19.5V17.5ZM15.75 17.5H2.25V19.5H15.75V17.5ZM16.375 17C16.375 17.1253 16.3248 17.2354 16.2175 17.3297C16.1017 17.4315 15.931 17.5 15.75 17.5V19.5C17.0176 19.5 18.375 18.5518 18.375 17H16.375ZM16.375 7.43073V17H18.375V7.43073H16.375ZM16.2208 7.07161C16.319 7.16342 16.375 7.29201 16.375 7.43073H18.375C18.375 6.74692 18.0957 6.08678 17.5871 5.61104L16.2208 7.07161ZM12.2731 3.50629C13.8778 4.89292 15.5447 6.43915 16.2208 7.07161L17.5871 5.61104C16.9058 4.97366 15.2159 3.4059 13.5808 1.993L12.2731 3.50629ZM10.0589 1.69158C10.689 2.16402 11.4698 2.81214 12.2731 3.50629L13.5808 1.993C12.7661 1.28907 11.9443 0.60547 11.2587 0.091401L10.0589 1.69158ZM9.26466 1.1448C9.47412 1.26898 9.7429 1.45465 10.0589 1.69158L11.2587 0.0914013C10.9188 -0.163444 10.5842 -0.397986 10.2846 -0.575582L9.26466 1.1448ZM9.02089 1.01711C9.07893 1.04136 9.15971 1.08257 9.26467 1.1448L10.2846 -0.575583C10.1357 -0.663888 9.96728 -0.755006 9.79212 -0.828211L9.02089 1.01711ZM9 1C8.98492 1 8.97467 0.998796 8.97001 0.998117C8.96536 0.997441 8.96465 0.997052 8.96825 0.997996C8.97182 0.99893 8.97808 1.00077 8.98734 1.00403C8.99657 1.00729 9.00751 1.01152 9.02089 1.01711L9.79212 -0.828211C9.64775 -0.888548 9.35497 -1 9 -1V1ZM5.07306 2.74965C3.45316 4.14941 1.77474 5.70641 1.09601 6.34132L2.46229 7.8019C3.13577 7.1719 4.79123 5.63642 6.38071 4.26294L5.07306 2.74965ZM7.34121 0.891491C6.68333 1.38475 5.88202 2.05061 5.07306 2.74965L6.38071 4.26294C7.17837 3.57366 7.93863 2.94328 8.54097 2.49167L7.34121 0.891491ZM8.22536 0.284607C7.97083 0.435508 7.66913 0.645629 7.34121 0.891491L8.54097 2.49167C8.84513 2.26362 9.08096 2.10242 9.24531 2.00499L8.22536 0.284607ZM8.5935 0.0944482C8.47683 0.143208 8.35222 0.209399 8.22536 0.284606L9.24531 2.00499C9.28468 1.98164 9.31486 1.96502 9.33647 1.95378C9.35886 1.94212 9.36764 1.93855 9.36473 1.93977L8.5935 0.0944482ZM8.64382 0.0743241C8.62763 0.0804958 8.61086 0.0871918 8.59346 0.0944623L9.36476 1.93975C9.36312 1.94044 9.36025 1.94161 9.35618 1.94316L8.64382 0.0743241ZM9.40654 0.0944623C9.38914 0.0871918 9.37237 0.0804958 9.35618 0.0743241L8.64382 1.94316C8.63975 1.94161 8.63688 1.94044 8.63524 1.93975L9.40654 0.0944623ZM9.77464 0.284608C9.64778 0.209397 9.52317 0.143207 9.4065 0.0944482L8.63527 1.93977C8.63236 1.93855 8.64114 1.94213 8.66353 1.95378C8.68514 1.96502 8.71531 1.98164 8.75469 2.00498L9.77464 0.284608ZM10.6588 0.891491C10.3309 0.645629 10.0292 0.435508 9.77464 0.284607L8.75469 2.00499C8.91904 2.10242 9.15487 2.26362 9.45903 2.49167L10.6588 0.891491ZM12.9269 2.74964C12.118 2.05061 11.3167 1.38475 10.6588 0.891491L9.45903 2.49167C10.0614 2.94328 10.8216 3.57366 11.6193 4.26294L12.9269 2.74964ZM16.904 6.34132C16.2253 5.70641 14.5468 4.14941 12.9269 2.74964L11.6193 4.26294C13.2088 5.63642 14.8642 7.1719 15.5377 7.8019L16.904 6.34132ZM17.375 7.43073C17.375 7.01918 17.2071 6.6249 16.904 6.34132L15.5377 7.8019C15.431 7.70206 15.375 7.56503 15.375 7.43073H17.375ZM17.375 17V7.43073H15.375V17H17.375ZM15.75 18.5C16.6213 18.5 17.375 17.8543 17.375 17H15.375C15.375 16.5905 15.683 16.5 15.75 16.5V18.5ZM2.25 18.5H15.75V16.5H2.25V18.5ZM0.625 17C0.625 17.8543 1.37871 18.5 2.25 18.5V16.5C2.31695 16.5 2.625 16.5905 2.625 17H0.625ZM0.625 7.43073V17H2.625V7.43073H0.625ZM1.09601 6.34132C0.792853 6.62491 0.625 7.01918 0.625 7.43073H2.625C2.625 7.56503 2.56902 7.70206 2.46229 7.8019L1.09601 6.34132ZM9 11C8.72386 11 8.5 10.7761 8.5 10.5H10.5C10.5 9.67157 9.82843 9 9 9V11ZM9.5 10.5C9.5 10.7761 9.27614 11 9 11V9C8.17157 9 7.5 9.67157 7.5 10.5H9.5ZM9.5 16.5V10.5H7.5V16.5H9.5ZM9 16C9.27614 16 9.5 16.2239 9.5 16.5H7.5C7.5 17.3284 8.17157 18 9 18V16ZM8.5 16.5C8.5 16.2239 8.72386 16 9 16V18C9.82843 18 10.5 17.3284 10.5 16.5H8.5ZM8.5 10.5V16.5H10.5V10.5H8.5Z" fill="#9E9EA7" mask="url(#path-1-inside-1_823_613)"/>
</svg>
