<svg width="9" height="12" viewBox="0 0 9 12" fill="none" xmlns="http://www.w3.org/2000/svg">
<path d="M7.875 4.625H7.5V3.25C7.5 1.73338 6.1545 0.5 4.5 0.5C2.8455 0.5 1.5 1.73338 1.5 3.25V4.625H1.125C0.505 4.625 0 5.08746 0 5.65625V10.4688C0 11.0375 0.505 11.5 1.125 11.5H7.875C8.495 11.5 9 11.0375 9 10.4688V5.65625C9 5.08746 8.495 4.625 7.875 4.625ZM2.5 3.25C2.5 2.23892 3.397 1.41667 4.5 1.41667C5.603 1.41667 6.5 2.23892 6.5 3.25V4.625H2.5V3.25ZM5 8.16425V9.20833C5 9.46133 4.7765 9.66667 4.5 9.66667C4.2235 9.66667 4 9.46133 4 9.20833V8.16425C3.7025 8.00521 3.5 7.71279 3.5 7.375C3.5 6.86946 3.9485 6.45833 4.5 6.45833C5.0515 6.45833 5.5 6.86946 5.5 7.375C5.5 7.71279 5.2975 8.00521 5 8.16425Z" fill="#687B8C"/>
</svg>
