<svg width="26" height="26" viewBox="0 0 26 26" fill="none" xmlns="http://www.w3.org/2000/svg">
<g clip-path="url(#clip0)">
<path d="M0.41415 25.4108V15.7119C0.411905 14.7385 1.19917 13.9477 2.17252 13.9455C2.17459 13.9455 2.17665 13.9455 2.17872 13.9455H7.50506V13.3368C7.2557 13.5363 6.89388 13.5056 6.68157 13.2672L5.18066 11.5562C4.96586 11.3148 4.98743 10.9451 5.22882 10.7303C5.23343 10.7261 5.23816 10.7221 5.24288 10.7182L12.4096 4.58593V3.66364H9.26875C8.94185 3.66305 8.6773 3.39756 8.67789 3.07067C8.67813 2.94155 8.72056 2.8161 8.79874 2.71334L9.47125 1.83035L8.79874 0.94747C8.6012 0.688474 8.65101 0.318388 8.91001 0.120847C9.01306 0.0422562 9.13916 -0.00023017 9.26875 6.19405e-06H12.9915C13.3192 -0.00147108 13.587 0.261483 13.5914 0.589202V4.4791L20.8749 10.7182C21.1216 10.932 21.1486 11.3051 20.9354 11.5522L19.4643 13.2632C19.3577 13.3934 19.1984 13.4689 19.0302 13.469C18.8993 13.469 18.7323 13.4253 18.6732 13.3369V13.9455H23.8223C24.7956 13.9443 25.5857 14.7323 25.5869 15.7057C25.5869 15.7077 25.5869 15.7098 25.5869 15.7119V25.4108C25.5905 25.7326 25.3327 25.9963 25.011 25.9999C25.0087 25.9999 25.0064 26 25.0041 26H0.996904C0.675156 26.0001 0.414209 25.7394 0.414091 25.4177C0.414091 25.4154 0.41415 25.4131 0.41415 25.4108ZM12.4096 1.18182H10.4618L10.6841 1.47285C10.8453 1.68457 10.8453 1.97778 10.6841 2.1895L10.4618 2.48182H12.4096V1.18182ZM18.6732 24.8182H24.4051V15.7119C24.4081 15.3921 24.1513 15.1304 23.8315 15.1273C23.8284 15.1273 23.8254 15.1272 23.8223 15.1273H18.6732V24.8182ZM18.9508 12.0465L19.652 11.2309L13.0537 5.58221L6.45992 11.2273L7.17882 12.0486L12.6696 7.34962C12.8904 7.16064 13.2158 7.16029 13.4371 7.34879L18.9508 12.0465ZM11.6414 24.8182H14.4778V20.6227H11.6414V24.8182ZM8.68688 24.8182H10.4596V20.0135C10.4481 19.7089 10.6857 19.4527 10.9903 19.4412C11.0009 19.4408 11.0116 19.4407 11.0222 19.4409H15.0858C15.3957 19.4339 15.6526 19.6796 15.6596 19.9896C15.6598 19.9976 15.6598 20.0055 15.6596 20.0135V24.8182H17.4914V12.3309L13.0767 8.57557L8.68688 12.3264V24.8182ZM1.59597 15.7119V24.8182H7.50506V15.1273H2.17872C1.85892 15.1253 1.59798 15.3828 1.59597 15.7026C1.59591 15.7057 1.59591 15.7088 1.59597 15.7119Z" fill="black"/>
<path d="M11.0219 15.8359H15.1122C15.4386 15.8359 15.7031 16.1005 15.7031 16.4268C15.7031 16.7532 15.4386 17.0178 15.1122 17.0178H11.0219C10.6956 17.0178 10.431 16.7532 10.431 16.4268C10.431 16.1005 10.6956 15.8359 11.0219 15.8359Z" fill="#149BB4"/>
<path d="M22.7499 16.7734C23.0763 16.7734 23.3408 17.038 23.3408 17.3643V18.3802C23.3408 18.7066 23.0763 18.9711 22.7499 18.9711C22.4236 18.9711 22.159 18.7066 22.159 18.3802V17.3643C22.159 17.038 22.4236 16.7734 22.7499 16.7734Z" fill="#149BB4"/>
<path d="M20.3271 16.7734C20.6534 16.7734 20.918 17.038 20.918 17.3643V18.3802C20.918 18.7066 20.6534 18.9711 20.3271 18.9711C20.0007 18.9711 19.7362 18.7066 19.7362 18.3802V17.3643C19.7362 17.038 20.0007 16.7734 20.3271 16.7734Z" fill="#149BB4"/>
<path d="M22.7499 20.7295C23.0763 20.7295 23.3408 20.994 23.3408 21.3204V22.3363C23.3408 22.6627 23.0763 22.9272 22.7499 22.9272C22.4236 22.9272 22.159 22.6627 22.159 22.3363V21.3204C22.159 20.994 22.4236 20.7295 22.7499 20.7295Z" fill="#149BB4"/>
<path d="M20.3271 20.7295C20.6534 20.7295 20.918 20.994 20.918 21.3204V22.3363C20.918 22.6627 20.6534 22.9272 20.3271 22.9272C20.0007 22.9272 19.7362 22.6627 19.7362 22.3363V21.3204C19.7362 20.994 20.0007 20.7295 20.3271 20.7295Z" fill="#149BB4"/>
<path d="M5.67276 16.7734C5.99912 16.7734 6.26367 17.038 6.26367 17.3643V18.3802C6.26367 18.7066 5.99912 18.9711 5.67276 18.9711C5.3464 18.9711 5.08185 18.7066 5.08185 18.3802V17.3643C5.08185 17.038 5.3464 16.7734 5.67276 16.7734Z" fill="#149BB4"/>
<path d="M3.30948 16.7734C3.63584 16.7734 3.90039 17.038 3.90039 17.3643V18.3802C3.90039 18.7066 3.63584 18.9711 3.30948 18.9711C2.98312 18.9711 2.71857 18.7066 2.71857 18.3802V17.3643C2.71857 17.038 2.98312 16.7734 3.30948 16.7734Z" fill="#149BB4"/>
<path d="M5.67276 20.7295C5.99912 20.7295 6.26367 20.994 6.26367 21.3204V22.3363C6.26367 22.6627 5.99912 22.9272 5.67276 22.9272C5.3464 22.9272 5.08185 22.6627 5.08185 22.3363V21.3204C5.08185 20.994 5.3464 20.7295 5.67276 20.7295Z" fill="#149BB4"/>
<path d="M3.30948 20.7295C3.63584 20.7295 3.90039 20.994 3.90039 21.3204V22.3363C3.90039 22.6627 3.63584 22.9272 3.30948 22.9272C2.98312 22.9272 2.71857 22.6627 2.71857 22.3363V21.3204C2.71857 20.994 2.98312 20.7295 3.30948 20.7295Z" fill="#149BB4"/>
</g>
<defs>
<clipPath id="clip0">
<rect width="26" height="26" fill="white" transform="matrix(-1 0 0 1 26 0)"/>
</clipPath>
</defs>
</svg>
