<svg width="19" height="15" viewBox="0 0 19 15" fill="none" xmlns="http://www.w3.org/2000/svg">
<path fill-rule="evenodd" clip-rule="evenodd" d="M3.92133 1.01105H15.9213C17.0259 1.01105 17.9213 1.90648 17.9213 3.01105V11.011C17.9213 12.1156 17.0259 13.011 15.9213 13.011H3.92133C2.81676 13.011 1.92133 12.1156 1.92133 11.011V3.01105C1.92133 1.90648 2.81676 1.01105 3.92133 1.01105ZM0.921326 3.01105C0.921326 1.35419 2.26447 0.0110474 3.92133 0.0110474H15.9213C17.5782 0.0110474 18.9213 1.35419 18.9213 3.01105V11.011C18.9213 12.6679 17.5782 14.011 15.9213 14.011H3.92133C2.26447 14.011 0.921326 12.6679 0.921326 11.011V3.01105ZM5.22141 3.61111L5.22132 3.61105C5.00041 3.44536 4.68701 3.49013 4.52133 3.71105C4.35564 3.93196 4.40041 4.24536 4.62133 4.41105L4.92133 4.01105C4.62133 4.41105 4.62136 4.41108 4.62142 4.41112L4.6216 4.41125L4.62224 4.41174L4.62461 4.41351L4.6336 4.42023L4.66809 4.44593C4.69819 4.46832 4.74225 4.50099 4.79855 4.54248C4.91115 4.62544 5.0728 4.74372 5.2698 4.88556C5.66344 5.16899 6.19989 5.54768 6.76898 5.92707C7.33634 6.30531 7.94417 6.68964 8.47877 6.98125C8.74563 7.1268 9.0031 7.25415 9.23368 7.34638C9.45002 7.43292 9.69609 7.51105 9.92133 7.51105C10.1466 7.51105 10.3926 7.43292 10.609 7.34638C10.8396 7.25415 11.097 7.1268 11.3639 6.98125C11.8985 6.68964 12.5063 6.30531 13.0737 5.92707C13.6428 5.54768 14.1792 5.16899 14.5729 4.88556C14.7699 4.74372 14.9315 4.62544 15.0441 4.54248C15.1004 4.50099 15.1445 4.46832 15.1746 4.44593L15.209 4.42023L15.218 4.41351L15.2204 4.41174L15.221 4.41125L15.2212 4.41112C15.2213 4.41108 15.2213 4.41105 14.9213 4.01105L15.2213 4.41105C15.4422 4.24536 15.487 3.93196 15.3213 3.71105C15.1556 3.49013 14.8422 3.44536 14.6213 3.61105L14.6212 3.61111L14.6208 3.61145L14.6188 3.61294L14.6106 3.61907L14.5778 3.64355C14.5488 3.6651 14.5059 3.69688 14.4509 3.73743C14.3408 3.81853 14.1822 3.93462 13.9885 4.07403C13.6009 4.35311 13.0749 4.72442 12.519 5.09502C11.9613 5.46678 11.3817 5.83245 10.885 6.10335C10.6363 6.23904 10.4172 6.34607 10.2376 6.4179C10.0438 6.49543 9.94609 6.51105 9.92133 6.51105C9.89656 6.51105 9.79888 6.49543 9.60507 6.4179C9.42549 6.34607 9.20639 6.23904 8.95763 6.10335C8.46098 5.83245 7.88132 5.46678 7.32368 5.09502C6.76777 4.72442 6.24171 4.35311 5.8541 4.07403C5.66048 3.93462 5.50182 3.81853 5.39175 3.73743C5.33673 3.69688 5.29388 3.6651 5.2649 3.64355L5.23206 3.61907L5.22385 3.61294L5.22187 3.61145L5.22141 3.61111Z" fill="#9E9EA7"/>
</svg>
