<svg width="32" height="28" viewBox="0 0 32 28" fill="none" xmlns="http://www.w3.org/2000/svg">
<path d="M23.6673 4.00033H30.334V0.666992H5.33398C4.0079 0.666992 2.73613 1.19378 1.79845 2.13146C0.860769 3.06914 0.333984 4.34091 0.333984 5.66699H3.66732C3.66732 5.22497 3.84291 4.80104 4.15547 4.48848C4.46803 4.17592 4.89196 4.00033 5.33398 4.00033H8.66732C9.10935 4.00033 9.53327 4.17592 9.84583 4.48848C10.1584 4.80104 10.334 5.22497 10.334 5.66699V25.667H13.6673V5.66699C13.6673 5.22497 13.8429 4.80104 14.1555 4.48848C14.468 4.17592 14.892 4.00033 15.334 4.00033H17.0007C17.4427 4.00033 17.8666 4.17592 18.1792 4.48848C18.4917 4.80104 18.6673 5.22497 18.6673 5.66699V21.5003C18.6706 22.5002 18.9287 23.4827 19.4171 24.3551C19.9056 25.2275 20.6083 25.9611 21.459 26.4865C22.3096 27.0119 23.2802 27.3118 24.279 27.358C25.2777 27.4042 26.2718 27.195 27.1673 26.7503C28.1485 26.2825 28.9711 25.5376 29.5339 24.6076C30.0966 23.6776 30.3747 22.6032 30.334 21.517H27.0007C27.0007 22.18 26.7373 22.8159 26.2684 23.2848C25.7996 23.7536 25.1637 24.017 24.5007 24.017C23.8376 24.017 23.2017 23.7536 22.7329 23.2848C22.264 22.8159 22.0007 22.18 22.0007 21.517V5.66699C22.0007 5.22497 22.1762 4.80104 22.4888 4.48848C22.8014 4.17592 23.2253 4.00033 23.6673 4.00033Z" fill="black"/>
<path d="M1.98405 7.35091C2.90452 7.35091 3.65072 6.60472 3.65072 5.68424C3.65072 4.76377 2.90452 4.01758 1.98405 4.01758C1.06357 4.01758 0.317383 4.76377 0.317383 5.68424C0.317383 6.60472 1.06357 7.35091 1.98405 7.35091Z" fill="#149BB4"/>
<path d="M30.3171 3.96712C31.2375 3.96712 31.9837 3.22093 31.9837 2.30046C31.9837 1.37998 31.2375 0.633789 30.3171 0.633789C29.3966 0.633789 28.6504 1.37998 28.6504 2.30046C28.6504 3.22093 29.3966 3.96712 30.3171 3.96712Z" fill="#149BB4"/>
<path d="M28.651 23.1839C29.5715 23.1839 30.3177 22.4377 30.3177 21.5173C30.3177 20.5968 29.5715 19.8506 28.651 19.8506C27.7306 19.8506 26.9844 20.5968 26.9844 21.5173C26.9844 22.4377 27.7306 23.1839 28.651 23.1839Z" fill="#149BB4"/>
<path d="M11.984 27.3001C12.9045 27.3001 13.6507 26.5539 13.6507 25.6335C13.6507 24.713 12.9045 23.9668 11.984 23.9668C11.0636 23.9668 10.3174 24.713 10.3174 25.6335C10.3174 26.5539 11.0636 27.3001 11.984 27.3001Z" fill="#149BB4"/>
</svg>
