<svg width="27" height="28" viewBox="0 0 27 28" fill="none" xmlns="http://www.w3.org/2000/svg">
<g clip-path="url(#clip0)">
<path d="M12.8703 18.3L10.305 12C9.44988 13.1308 7.63708 15.4892 7.22663 15.8769C6.81618 16.2646 7.05561 17.3308 7.22663 17.8154L8.15397 18.7846C8.66702 18.7846 9.99714 18.3969 10.818 18.7846C11.8442 19.2692 11.3311 18.7846 12.3572 18.7846C13.1781 18.7846 13.0413 18.4615 12.8703 18.3Z" fill="#149BB4"/>
<path d="M12.8703 18.3L10.305 12C9.44988 13.1308 7.63708 15.4892 7.22663 15.8769C6.81618 16.2646 7.05561 17.3308 7.22663 17.8154L8.15397 18.7846C8.66702 18.7846 9.99714 18.3969 10.818 18.7846C11.8442 19.2692 11.3311 18.7846 12.3572 18.7846C13.1781 18.7846 13.0413 18.4615 12.8703 18.3Z" fill="#149BB4"/>
<path d="M19.8703 9.3L17.305 3C16.4499 4.13077 14.6371 6.48923 14.2266 6.87692C13.8162 7.26462 14.0556 8.33077 14.2266 8.81538L15.154 9.78462C15.667 9.78462 16.9971 9.39692 17.818 9.78462C18.8442 10.2692 18.3311 9.78462 19.3572 9.78462C20.1781 9.78462 20.0413 9.46154 19.8703 9.3Z" fill="#149BB4"/>
<path d="M19.8703 9.3L17.305 3C16.4499 4.13077 14.6371 6.48923 14.2266 6.87692C13.8162 7.26462 14.0556 8.33077 14.2266 8.81538L15.154 9.78462C15.667 9.78462 16.9971 9.39692 17.818 9.78462C18.8442 10.2692 18.3311 9.78462 19.3572 9.78462C20.1781 9.78462 20.0413 9.46154 19.8703 9.3Z" fill="#149BB4"/>
<path d="M3.96826 5.36023L7.83652 12.7391V14.4909L8.02509 14.5373L10.3228 10.1546L12.6204 14.5373L12.809 14.4909V8.12157L16.6772 0.74272L20.5455 8.12157V11.1399L20.7341 11.1863L23.0317 6.80336L26.9 14.1822V27.456H0.1V12.7391L3.96826 5.36023ZM20.5738 14.4701L20.5572 14.5018L20.5645 14.5369C20.6493 14.9445 21.0106 15.2522 21.4431 15.2522C21.9046 15.2522 22.2854 14.9021 22.3352 14.453H23.7283C23.778 14.9021 24.1589 15.2522 24.6204 15.2522C25.0529 15.2522 25.4142 14.9445 25.499 14.5369L25.5063 14.5018L25.4896 14.4701L24.2333 12.0734L24.2052 12.0198H24.1447H21.9188H21.8583L21.8302 12.0734L20.5738 14.4701ZM23.3137 10.6347H23.4791L23.4023 10.4883L23.1203 9.95039L23.0317 9.78147L22.9432 9.95039L22.6612 10.4883L22.5844 10.6347H22.7497H23.3137ZM14.2193 8.40923L14.2027 8.44095L14.21 8.47602C14.2948 8.88389 14.6561 9.19157 15.0886 9.19157C15.5501 9.19157 15.9309 8.84124 15.9807 8.3924H17.3738C17.4236 8.84124 17.8044 9.19157 18.2659 9.19157C18.6984 9.19157 19.0597 8.88389 19.1445 8.47602L19.1518 8.44095L19.1352 8.40923L17.8788 6.01276L17.8507 5.95919H17.7902H15.5643H15.5038L15.4757 6.01276L14.2193 8.40923ZM16.9593 4.57406H17.1246L17.0478 4.42764L16.7658 3.88957L16.6772 3.72057L16.5887 3.88957L16.3067 4.42764L16.2299 4.57406H16.3952H16.9593ZM7.86485 17.8211L7.84822 17.8528L7.85551 17.8879C7.94031 18.2958 8.3016 18.6035 8.73413 18.6035C9.19558 18.6035 9.57644 18.2531 9.62623 17.8043H11.0193C11.0691 18.2531 11.4499 18.6035 11.9114 18.6035C12.3439 18.6035 12.7052 18.2958 12.79 17.8879L12.7973 17.8528L12.7807 17.8211L11.5243 15.4247L11.4962 15.3711H11.4357H9.20977H9.14929L9.1212 15.4247L7.86485 17.8211ZM10.6048 13.986H10.7701L10.6933 13.8395L10.4113 13.3015L10.3228 13.1325L10.2342 13.3015L9.95218 13.8395L9.87544 13.986H10.0407H10.6048ZM1.51036 13.0267L1.49373 13.0585L1.50102 13.0935C1.58581 13.5014 1.94711 13.8091 2.37964 13.8091C2.84109 13.8091 3.22195 13.4588 3.27173 13.0099H4.66479C4.71458 13.4588 5.09544 13.8091 5.55688 13.8091C5.98942 13.8091 6.35071 13.5014 6.43551 13.0935L6.4428 13.0585L6.42617 13.0267L5.16981 10.6303L5.14173 10.5767H5.08125H2.85528H2.79479L2.76671 10.6303L1.51036 13.0267ZM4.25027 9.19157H4.41558L4.33884 9.04515L4.05683 8.50707L3.96826 8.33807L3.87969 8.50707L3.59768 9.04515L3.52094 9.19157H3.68626H4.25027ZM1.61576 15.0618L1.48203 15.0139V15.1559V25.9709V26.0709H1.58203H3.17725H3.27725V25.9709V15.1559V15.0139L3.14352 15.0618C2.90465 15.1474 2.64764 15.1942 2.37964 15.1942C2.11164 15.1942 1.85463 15.1474 1.61576 15.0618ZM6.35449 26.0709H6.45449V25.9709V15.1559V15.0139L6.32077 15.0618C6.08189 15.1474 5.82488 15.1942 5.55688 15.1942C5.28889 15.1942 5.03187 15.1474 4.793 15.0618L4.65928 15.0139V15.1559V25.9709V26.0709H4.75928H6.35449ZM7.97025 19.8562L7.83652 19.8083V19.9503V25.9709V26.0709H7.93652H9.53174H9.63174V25.9709V19.9503V19.8083L9.49801 19.8562C9.25914 19.9417 9.00213 19.9886 8.73413 19.9886C8.46613 19.9886 8.20912 19.9417 7.97025 19.8562ZM11.0138 25.9709V26.0709H11.1138H12.709H12.809V25.9709V19.9503V19.8083L12.6753 19.8562C12.4364 19.9417 12.1794 19.9886 11.9114 19.9886C11.6434 19.9886 11.3864 19.9417 11.1475 19.8562L11.0138 19.8083V19.9503V25.9709ZM14.3247 10.4443L14.191 10.3964V10.5384V17.5088V25.9709V26.0709H14.291H15.8862H15.9862V25.9709V10.5384V10.3964L15.8525 10.4443C15.6136 10.5298 15.3566 10.5767 15.0886 10.5767C14.8206 10.5767 14.5636 10.5298 14.3247 10.4443ZM19.0635 26.0709H19.1635V25.9709V10.5384V10.3964L19.0298 10.4443C18.7909 10.5298 18.5339 10.5767 18.2659 10.5767C17.9979 10.5767 17.7409 10.5298 17.502 10.4443L17.3683 10.3964V10.5384V25.9709V26.0709H17.4683H19.0635ZM20.6792 16.5051L20.5455 16.4573V16.5993V25.9709V26.0709H20.6455H22.2407H22.3407V25.9709V16.5993V16.4573L22.2071 16.5051C21.9682 16.5905 21.7111 16.6373 21.4431 16.6373C21.1751 16.6373 20.9181 16.5905 20.6792 16.5051ZM23.7228 25.9709V26.0709H23.8228H25.418H25.518V25.9709V16.5993V16.4573L25.3843 16.5051C25.1454 16.5905 24.8884 16.6373 24.6204 16.6373C24.3524 16.6373 24.0953 16.5905 23.8564 16.5051L23.7228 16.4573V16.5993V25.9709Z" fill="black" stroke="white" stroke-width="0.2"/>
</g>
<defs>
<clipPath id="clip0">
<rect width="27" height="27" fill="white" transform="translate(0 0.5)"/>
</clipPath>
</defs>
</svg>
