<svg width="37" height="37" viewBox="0 0 37 37" fill="none" xmlns="http://www.w3.org/2000/svg">
<circle r="18.5" transform="matrix(-1 0 0 1 18.5 18.5)" fill="#687B8C"/>
<path d="M18.3618 17.6402C15.4236 17.6402 13.0417 15.2583 13.0417 12.3201C13.0417 9.38189 15.4236 7 18.3618 7C21.3 7 23.6819 9.38189 23.6819 12.3201C23.6819 15.2583 21.3 17.6402 18.3618 17.6402Z" fill="#C3D1DD"/>
<path d="M18.3617 20.3005C24.2236 20.3005 28.9769 22.671 29 25.5994C27.7655 27.257 26.1608 28.6032 24.3137 29.5306C22.4667 30.4581 20.4285 30.941 18.3617 30.941C16.2949 30.941 14.2567 30.4581 12.4097 29.5306C10.5626 28.6032 8.95787 27.257 7.72338 25.5994C7.74645 22.671 12.4992 20.2999 18.3617 20.2999V20.3005Z" fill="#C3D1DD"/>
</svg>
