<svg width="12" height="15" viewBox="0 0 12 15" fill="none" xmlns="http://www.w3.org/2000/svg">
<path d="M6 6.5C4.34315 6.5 3 5.15685 3 3.5C3 1.84315 4.34315 0.5 6 0.5C7.65685 0.5 9 1.84315 9 3.5C9 5.15685 7.65685 6.5 6 6.5Z" fill="black"/>
<path d="M6 8.50035C9.3061 8.50035 11.987 9.83692 12 11.4881C11.3037 12.4228 10.3987 13.1818 9.35694 13.7048C8.31521 14.2277 7.16567 14.5 6 14.5C4.83433 14.5 3.68479 14.2277 2.64306 13.7048C1.60133 13.1818 0.69625 12.4228 0 11.4881C0.01301 9.83692 2.69355 8.5 6 8.5V8.50035Z" fill="black"/>
</svg>
