<svg width="16" height="15" viewBox="0 0 16 15" fill="none" xmlns="http://www.w3.org/2000/svg">
<path fill-rule="evenodd" clip-rule="evenodd" d="M13.9882 10.1689C16.2945 9.43787 16.2618 6.16288 13.9413 5.47811C13.2097 5.26221 12.7697 4.5173 12.9336 3.77234C13.4537 1.40948 10.6011 -0.199654 8.84783 1.46755C8.29506 1.99319 7.42992 2.00184 6.86675 1.48736C5.08049 -0.14446 2.26064 1.52139 2.82785 3.87337C3.00667 4.61491 2.58159 5.36847 1.85445 5.59895C-0.451873 6.32998 -0.419129 9.60496 1.90135 10.2897C2.63295 10.5056 3.07301 11.2506 2.90905 11.9955C2.38898 14.3584 5.24157 15.9675 6.99484 14.3003C7.54762 13.7747 8.41276 13.766 8.97593 14.2805C10.7622 15.9123 13.582 14.2465 13.0148 11.8945C12.836 11.1529 13.2611 10.3994 13.9882 10.1689ZM13.6583 6.43722C15.0327 6.84282 15.0521 8.78264 13.6861 9.21564C12.4584 9.60476 11.7408 10.877 12.0427 12.1289C12.3787 13.522 10.7084 14.5087 9.6504 13.5422C8.69961 12.6736 7.23899 12.6882 6.30575 13.5756C5.26726 14.5631 3.57763 13.61 3.88567 12.2105C4.1625 10.9528 3.41954 9.69513 2.18439 9.33063C0.809931 8.92503 0.790538 6.98521 2.15661 6.55221C3.38423 6.16309 4.10189 4.89086 3.79998 3.63893C3.46401 2.24582 5.13425 1.25911 6.19228 2.22566C7.14307 3.09425 8.60369 3.07965 9.53693 2.19222C10.5754 1.20471 12.265 2.15783 11.957 3.55738C11.6802 4.81509 12.4231 6.07272 13.6583 6.43722ZM7.94133 9.88382C6.83682 9.89487 5.93248 9.00843 5.92144 7.90392C5.9104 6.7994 6.79683 5.89507 7.90134 5.88402C9.00586 5.87298 9.9102 6.75942 9.92124 7.86393C9.93228 8.96844 9.04585 9.87278 7.94133 9.88382ZM7.95133 10.8838C6.29456 10.9003 4.93805 9.57069 4.92149 7.91392C4.90492 6.25714 6.23457 4.90064 7.89135 4.88407C9.54812 4.86751 10.9046 6.19716 10.9212 7.85393C10.9378 9.5107 9.6081 10.8672 7.95133 10.8838Z" fill="#9E9EA7"/>
</svg>
