<svg width="28" height="28" viewBox="0 0 28 28" fill="none" xmlns="http://www.w3.org/2000/svg">
<path d="M19.8186 11.3326L16.4703 14.2627C16.322 14.3925 16.2741 14.6031 16.3517 14.7843L18.1037 18.8741C18.1437 18.9676 18.0407 19.0577 17.9534 19.0056L14.1321 16.7266C13.9628 16.6257 13.7477 16.6452 13.5994 16.775L10.2511 19.705C10.1746 19.772 10.057 19.7019 10.0795 19.6027L11.0662 15.2642C11.1099 15.072 11.0248 14.8735 10.8555 14.7726L7.03424 12.4935C6.94688 12.4415 6.97723 12.308 7.07851 12.2988L11.5096 11.8964C11.7059 11.8786 11.8684 11.7364 11.9121 11.5442L12.8987 7.20566C12.9212 7.10649 13.0575 7.09411 13.0976 7.1876L14.8495 11.2775C14.9272 11.4586 15.1126 11.5693 15.3089 11.5514L19.74 11.1491C19.8413 11.1399 19.8952 11.2657 19.8186 11.3326Z" fill="#FFE500" stroke="black" stroke-width="1.25"/>
<path d="M16.0806 20.256L15.7864 20.5134C15.6632 20.6213 15.6234 20.7962 15.6879 20.9467L15.8418 21.3061C15.9112 21.4681 15.7327 21.6243 15.5813 21.534L15.2456 21.3338C15.1049 21.2499 14.9262 21.2661 14.803 21.374L14.5088 21.6314C14.3761 21.7475 14.1724 21.626 14.2115 21.4541L14.2982 21.0729C14.3345 20.9132 14.2638 20.7483 14.1232 20.6644L13.7875 20.4642C13.636 20.3739 13.6886 20.1426 13.8642 20.1266L14.2535 20.0913C14.4166 20.0765 14.5516 19.9583 14.5879 19.7987L14.6746 19.4175C14.7137 19.2456 14.95 19.2241 15.0194 19.3862L15.1733 19.7455C15.2378 19.896 15.3919 19.9879 15.555 19.9731L15.9443 19.9378C16.1199 19.9218 16.2133 20.1399 16.0806 20.256Z" fill="#FFE500" stroke="black" stroke-width="0.7"/>
<path d="M9.01557 6.10991L8.10761 6.90444C7.95929 7.03425 7.91139 7.24481 7.989 7.42603L8.46408 8.53505C8.50414 8.62854 8.40113 8.71868 8.31377 8.66657L7.27758 8.04858C7.10829 7.94761 6.89322 7.96716 6.74488 8.09696L5.83692 8.89149C5.7604 8.95847 5.64285 8.88838 5.66539 8.78918L5.93293 7.61273C5.97664 7.42051 5.8916 7.22202 5.72232 7.12105L4.68609 6.50306C4.59873 6.45096 4.62908 6.31751 4.73039 6.30832L5.93195 6.19921C6.12826 6.18137 6.29077 6.03916 6.33448 5.84697L6.60199 4.67049C6.62456 4.57131 6.76086 4.55894 6.8009 4.65243L7.27598 5.76145C7.3536 5.94267 7.53907 6.05327 7.73538 6.03543L8.93691 5.92632C9.03822 5.91713 9.09212 6.04294 9.01557 6.10991Z" fill="#FFE500" stroke="black" stroke-width="1.25"/>
<path d="M16.38 8.68C16.6119 8.68 16.8 8.49196 16.8 8.26C16.8 8.02804 16.6119 7.84 16.38 7.84C16.148 7.84 15.96 8.02804 15.96 8.26C15.96 8.49196 16.148 8.68 16.38 8.68Z" fill="black" fill-opacity="0.76"/>
<path d="M18.62 15.4C18.8519 15.4 19.04 15.212 19.04 14.98C19.04 14.748 18.8519 14.56 18.62 14.56C18.388 14.56 18.2 14.748 18.2 14.98C18.2 15.212 18.388 15.4 18.62 15.4Z" fill="black" fill-opacity="0.76"/>
<path d="M6.16008 16.975C6.41137 16.975 6.61508 16.7713 6.61508 16.52C6.61508 16.2687 6.41137 16.065 6.16008 16.065C5.90879 16.065 5.70508 16.2687 5.70508 16.52C5.70508 16.7713 5.90879 16.975 6.16008 16.975Z" stroke="black" stroke-width="0.75"/>
<path d="M20.3 14.14C20.6093 14.14 20.86 13.8893 20.86 13.58C20.86 13.2707 20.6093 13.02 20.3 13.02C19.9907 13.02 19.74 13.2707 19.74 13.58C19.74 13.8893 19.9907 14.14 20.3 14.14Z" stroke="black"/>
</svg>
