<svg width="16" height="18" viewBox="0 0 16 18" fill="none" xmlns="http://www.w3.org/2000/svg">
<rect x="1" y="13" width="3" height="5" fill="#9E9EA7"/>
<rect x="13" y="7" width="3" height="11" fill="#9E9EA7"/>
<path d="M5 11H8V18H5V11Z" fill="#9E9EA7"/>
<rect width="3" height="9" transform="matrix(1 0 0 -1 9 18)" fill="#9E9EA7"/>
<path d="M13.3385 2.08907C13.3877 1.90214 13.276 1.71072 13.0891 1.66152L10.0428 0.85987C9.85585 0.810677 9.66443 0.922338 9.61524 1.10927C9.56605 1.29621 9.67771 1.48763 9.86464 1.53682L12.5725 2.2494L11.8599 4.95721C11.8107 5.14415 11.9223 5.33557 12.1093 5.38476C12.2962 5.43395 12.4876 5.32229 12.5368 5.13536L13.3385 2.08907ZM1.17635 9.30232L13.1764 2.30232L12.8236 1.69768L0.823645 8.69768L1.17635 9.30232Z" fill="#9E9EA7"/>
</svg>
