<svg width="24" height="18" viewBox="0 0 24 18" fill="none" xmlns="http://www.w3.org/2000/svg">
<path d="M12 1L1.5 5.5L11.5 10.5L16.5 9L23 6L17 3.5L12 1Z" fill="#149BB4"/>
<path d="M23.5491 5.3653L12.2983 0.560944C12.108 0.479685 11.892 0.479685 11.7018 0.560944L0.45093 5.3653C-0.15024 5.62201 -0.15038 6.46494 0.45093 6.72165L4.49945 8.45044V13.0652C4.49945 15.552 7.79407 17.5 12 17.5C16.2059 17.5 19.5006 15.552 19.5006 13.0652V8.45044L20.2506 8.13016V16.0217C20.2506 16.4299 20.5865 16.7609 21.0007 16.7609C21.4149 16.7609 21.7507 16.4299 21.7507 16.0217V7.48961L23.5491 6.7217C24.1503 6.46499 24.1504 5.62206 23.5491 5.3653ZM12 2.04466L21.3644 6.0435L20.6217 6.36063L12.093 5.31005C11.6819 5.25974 11.3071 5.54676 11.2557 5.9518C11.2043 6.35685 11.4959 6.72627 11.907 6.7769L17.9141 7.51687L12 10.0423C6.70944 7.78309 7.83626 8.26427 2.63561 6.04345L12 2.04466ZM18.0005 13.0653C18.0005 13.7617 17.4204 14.4787 16.4091 15.0323C14.0004 16.351 10.0066 16.3549 7.59095 15.0323C6.57959 14.4787 5.99956 13.7617 5.99956 13.0653V9.09108L11.7018 11.5261C11.8917 11.6072 12.1076 11.6075 12.2983 11.5261L18.0005 9.09108V13.0653Z" fill="black"/>
</svg>
