<svg width="8" height="11" viewBox="0 0 8 11" fill="none" xmlns="http://www.w3.org/2000/svg">
<path d="M1.77441 6.93457V10.3392L3.5486 9.04887L5.32278 10.3392V6.93457C4.78907 7.26242 4.17496 7.43598 3.5486 7.43598C2.92223 7.43598 2.30812 7.26242 1.77441 6.93457Z" fill="#C68005"/>
<path d="M3.54856 1.30664C3.00626 1.30664 2.47614 1.46745 2.02523 1.76874C1.57433 2.07002 1.22289 2.49825 1.01536 2.99927C0.807829 3.50029 0.75353 4.0516 0.859327 4.58348C0.965124 5.11536 1.22627 5.60392 1.60973 5.98738C1.99319 6.37085 2.48176 6.63199 3.01364 6.73779C3.54552 6.84359 4.09682 6.78929 4.59784 6.58176C5.09886 6.37423 5.52709 6.02279 5.82838 5.57188C6.12966 5.12098 6.29047 4.59086 6.29047 4.04856C6.29047 3.32136 6.0016 2.62394 5.48739 2.10973C4.97318 1.59552 4.27576 1.30664 3.54856 1.30664ZM5.28705 3.75138C5.35564 3.78034 5.4121 3.83214 5.44686 3.89798C5.48161 3.96382 5.49252 4.03966 5.47773 4.11263C5.46294 4.1856 5.42337 4.25121 5.36572 4.29832C5.30807 4.34544 5.2359 4.37117 5.16145 4.37114C5.247 4.37114 5.32905 4.40512 5.38955 4.46562C5.45004 4.52611 5.48403 4.60816 5.48403 4.69371C5.48403 4.77927 5.45004 4.86132 5.38955 4.92181C5.32905 4.98231 5.247 5.01629 5.16145 5.01629H4.83887C4.92443 5.01629 5.00647 5.05028 5.06697 5.11077C5.12746 5.17127 5.16145 5.25332 5.16145 5.33887C5.16145 5.42442 5.12746 5.50647 5.06697 5.56697C5.00647 5.62746 4.92443 5.66145 4.83887 5.66145H3.22598L2.9034 5.33887H2.41953V3.4034H2.9034L3.22598 3.08082L3.38727 2.19373C3.38727 2.08679 3.42975 1.98423 3.50537 1.90861C3.58099 1.83299 3.68355 1.79051 3.79049 1.79051C3.89743 1.79051 3.99999 1.83299 4.07561 1.90861C4.15123 1.98423 4.19372 2.08679 4.19372 2.19373V3.08082H5.16145C5.247 3.08082 5.32905 3.11481 5.38955 3.1753C5.45004 3.2358 5.48403 3.31785 5.48403 3.4034C5.48403 3.48895 5.45004 3.571 5.38955 3.6315C5.32905 3.69199 5.247 3.72598 5.16145 3.72598C5.2046 3.72593 5.24732 3.73457 5.28705 3.75138Z" fill="#C68005"/>
<path d="M3.54871 1.14551C1.94792 1.14551 0.645508 2.44792 0.645508 4.04871C0.645508 5.64951 1.94792 6.95192 3.54871 6.95192C5.14951 6.95192 6.45192 5.64951 6.45192 4.04871C6.45192 2.44792 5.14951 1.14551 3.54871 1.14551ZM3.54871 6.62934C3.03831 6.62934 2.53938 6.47799 2.11499 6.19443C1.69061 5.91086 1.35985 5.50782 1.16452 5.03628C0.969203 4.56473 0.918098 4.04585 1.01767 3.54526C1.11725 3.04467 1.36303 2.58484 1.72393 2.22393C2.08484 1.86303 2.54467 1.61725 3.04526 1.51767C3.54585 1.4181 4.06473 1.4692 4.53628 1.66452C5.00782 1.85985 5.41086 2.19061 5.69443 2.61499C5.97799 3.03938 6.12934 3.53831 6.12934 4.04871C6.12857 4.7329 5.85644 5.38885 5.37264 5.87264C4.88885 6.35644 4.2329 6.62857 3.54871 6.62934Z" fill="#F9BF58"/>
<path d="M3.54836 0.5C1.59172 0.5 0 2.09172 0 4.04836C0.000218548 4.63893 0.147845 5.2201 0.429493 5.73917C0.711141 6.25825 1.1179 6.69882 1.61289 7.02092V10.3386C1.61288 10.3684 1.6211 10.3976 1.63666 10.423C1.65221 10.4484 1.67448 10.4689 1.70101 10.4824C1.72754 10.496 1.75729 10.5019 1.78696 10.4995C1.81664 10.4971 1.84508 10.4866 1.86914 10.4691L3.54836 9.24772L5.22758 10.4691C5.25165 10.4866 5.28009 10.4971 5.30976 10.4995C5.33944 10.5019 5.36918 10.496 5.39571 10.4824C5.42224 10.4689 5.44451 10.4484 5.46007 10.423C5.47562 10.3976 5.48385 10.3684 5.48383 10.3386V7.02092C5.97882 6.69882 6.38558 6.25825 6.66723 5.73917C6.94888 5.2201 7.09651 4.63893 7.09672 4.04836C7.09672 2.09172 5.505 0.5 3.54836 0.5ZM5.16125 10.0219L3.64332 8.91788C3.61572 8.89784 3.58248 8.88704 3.54836 8.88704C3.51425 8.88704 3.48101 8.89784 3.4534 8.91788L1.93547 10.0219V7.20842C2.43481 7.46364 2.98758 7.59673 3.54836 7.59673C4.10914 7.59673 4.66192 7.46364 5.16125 7.20842V10.0219ZM3.54836 7.27415C1.76975 7.27415 0.322578 5.82698 0.322578 4.04836C0.322578 2.26975 1.76975 0.822578 3.54836 0.822578C5.32698 0.822578 6.77415 2.26975 6.77415 4.04836C6.77415 5.82698 5.32698 7.27415 3.54836 7.27415Z" fill="#F9BF58"/>
<path d="M5.52233 3.72514C5.58459 3.65553 5.62537 3.56938 5.63974 3.4771C5.65412 3.38482 5.64148 3.29035 5.60334 3.2051C5.5652 3.11985 5.5032 3.04746 5.42482 2.99667C5.34644 2.94589 5.25504 2.91887 5.16164 2.9189H4.3552V2.1931C4.35537 2.04463 4.29704 1.90207 4.19286 1.79629C4.08867 1.69052 3.947 1.63005 3.79855 1.62798C3.65009 1.62592 3.5068 1.68242 3.39971 1.78524C3.29261 1.88807 3.23034 2.02895 3.22637 2.17737L3.07658 3.00176L2.83686 3.24148H2.58102C2.58102 3.1987 2.56402 3.15767 2.53378 3.12743C2.50353 3.09718 2.4625 3.08019 2.41973 3.08019H1.77457C1.73179 3.08019 1.69077 3.09718 1.66052 3.12743C1.63027 3.15767 1.61328 3.1987 1.61328 3.24148V5.49952C1.61328 5.5423 1.63027 5.58333 1.66052 5.61357C1.69077 5.64382 1.73179 5.66081 1.77457 5.66081H2.41973C2.4625 5.66081 2.50353 5.64382 2.53378 5.61357C2.56402 5.58333 2.58102 5.5423 2.58102 5.49952H2.83686L3.11206 5.77493C3.14234 5.80515 3.18339 5.82212 3.22617 5.8221H4.83907C4.91801 5.82212 4.99576 5.80282 5.06553 5.76588C5.1353 5.72895 5.19497 5.6755 5.23933 5.6102C5.2837 5.54489 5.3114 5.46973 5.32004 5.39126C5.32867 5.31279 5.31797 5.23339 5.28886 5.16001C5.36845 5.13829 5.44116 5.09658 5.5001 5.03886C5.55904 4.98114 5.60226 4.90932 5.62565 4.83021C5.64903 4.7511 5.65182 4.66732 5.63374 4.58683C5.61565 4.50634 5.57731 4.43181 5.52233 4.3703C5.60167 4.28159 5.64554 4.16674 5.64554 4.04772C5.64554 3.9287 5.60167 3.81385 5.52233 3.72514ZM2.25844 5.33823H1.93586V3.40276H2.25844V5.33823ZM4.67778 3.88663H5.16164C5.20442 3.88663 5.24544 3.90363 5.27569 3.93387C5.30594 3.96412 5.32293 4.00514 5.32293 4.04792C5.32293 4.0907 5.30594 4.13172 5.27569 4.16197C5.24544 4.19222 5.20442 4.20921 5.16164 4.20921H4.67778C4.635 4.20921 4.59397 4.2262 4.56373 4.25645C4.53348 4.2867 4.51649 4.32772 4.51649 4.3705C4.51649 4.41328 4.53348 4.4543 4.56373 4.48455C4.59397 4.5148 4.635 4.53179 4.67778 4.53179H5.16164C5.20442 4.53179 5.24544 4.54878 5.27569 4.57903C5.30594 4.60928 5.32293 4.6503 5.32293 4.69308C5.32293 4.73585 5.30594 4.77688 5.27569 4.80713C5.24544 4.83737 5.20442 4.85437 5.16164 4.85437H4.67778C4.635 4.85437 4.59397 4.87136 4.56373 4.90161C4.53348 4.93186 4.51649 4.97288 4.51649 5.01566C4.51649 5.05843 4.53348 5.09946 4.56373 5.12971C4.59397 5.15995 4.635 5.17695 4.67778 5.17695H4.83907C4.88184 5.17695 4.92287 5.19394 4.95311 5.22419C4.98336 5.25443 5.00035 5.29546 5.00035 5.33823C5.00035 5.38101 4.98336 5.42204 4.95311 5.45228C4.92287 5.48253 4.88184 5.49952 4.83907 5.49952H3.29291L3.01771 5.22412C2.98742 5.1939 2.94638 5.17693 2.90359 5.17695H2.58102V3.56405H2.90359C2.94638 3.56407 2.98742 3.5471 3.01771 3.51688L3.34029 3.1943C3.36347 3.17107 3.37901 3.14132 3.38484 3.10902L3.54613 2.22193C3.54791 2.21242 3.54879 2.20277 3.54875 2.1931C3.54875 2.12893 3.57424 2.06739 3.61961 2.02202C3.66498 1.97665 3.72652 1.95116 3.79069 1.95116C3.85485 1.95116 3.91639 1.97665 3.96176 2.02202C4.00713 2.06739 4.03262 2.12893 4.03262 2.1931V3.08019C4.03262 3.12296 4.04961 3.16399 4.07986 3.19424C4.11011 3.22448 4.15113 3.24148 4.19391 3.24148H5.16164C5.20442 3.24148 5.24544 3.25847 5.27569 3.28872C5.30594 3.31896 5.32293 3.35999 5.32293 3.40276C5.32293 3.44554 5.30594 3.48657 5.27569 3.51681C5.24544 3.54706 5.20442 3.56405 5.16164 3.56405H4.67778C4.635 3.56405 4.59397 3.58105 4.56373 3.61129C4.53348 3.64154 4.51649 3.68257 4.51649 3.72534C4.51649 3.76812 4.53348 3.80914 4.56373 3.83939C4.59397 3.86964 4.635 3.88663 4.67778 3.88663Z" fill="#F9BF58"/>
</svg>
