<svg width="16" height="17" viewBox="0 0 16 17" fill="none" xmlns="http://www.w3.org/2000/svg">
<path fill-rule="evenodd" clip-rule="evenodd" d="M13.9997 3.16699H1.99967C1.82286 3.16699 1.65329 3.23723 1.52827 3.36225C1.40325 3.48728 1.33301 3.65685 1.33301 3.83366V14.367C1.33392 14.4322 1.35397 14.4958 1.39066 14.5497C1.42734 14.6037 1.47906 14.6457 1.53939 14.6705C1.59973 14.6954 1.66602 14.702 1.73007 14.6895C1.79411 14.677 1.85308 14.646 1.89967 14.6003L4.66634 11.8337H13.9997C14.1765 11.8337 14.3461 11.7634 14.4711 11.6384C14.5961 11.5134 14.6663 11.3438 14.6663 11.167V3.83366C14.6663 3.65685 14.5961 3.48728 14.4711 3.36225C14.3461 3.23723 14.1765 3.16699 13.9997 3.16699Z" fill="#454E9E"/>
<path d="M5.32019 9.5C5.20419 9.5 5.11219 9.468 5.04419 9.404C4.98019 9.34 4.94819 9.25 4.94819 9.134V5.636C4.94819 5.52 4.98019 5.43 5.04419 5.366C5.11219 5.302 5.20419 5.27 5.32019 5.27H7.48619C7.60219 5.27 7.69219 5.296 7.75619 5.348C7.82019 5.4 7.85219 5.474 7.85219 5.57C7.85219 5.67 7.82019 5.748 7.75619 5.804C7.69219 5.856 7.60219 5.882 7.48619 5.882H5.70419V7.046H7.36619C7.48219 7.046 7.57219 7.072 7.63619 7.124C7.70019 7.176 7.73219 7.252 7.73219 7.352C7.73219 7.448 7.70019 7.522 7.63619 7.574C7.57219 7.626 7.48219 7.652 7.36619 7.652H5.70419V8.888H7.48619C7.60219 8.888 7.69219 8.916 7.75619 8.972C7.82019 9.024 7.85219 9.1 7.85219 9.2C7.85219 9.296 7.82019 9.37 7.75619 9.422C7.69219 9.474 7.60219 9.5 7.48619 9.5H5.32019ZM11.6854 5.24C11.7974 5.24 11.8854 5.276 11.9494 5.348C12.0174 5.416 12.0514 5.508 12.0514 5.624V9.146C12.0514 9.262 12.0174 9.356 11.9494 9.428C11.8814 9.5 11.7934 9.536 11.6854 9.536C11.5574 9.536 11.4594 9.49 11.3914 9.398L9.20139 6.548V9.146C9.20139 9.262 9.16939 9.356 9.10539 9.428C9.04139 9.5 8.95339 9.536 8.84139 9.536C8.72939 9.536 8.64139 9.5 8.57739 9.428C8.51339 9.356 8.48139 9.262 8.48139 9.146V5.624C8.48139 5.508 8.51539 5.416 8.58339 5.348C8.65139 5.276 8.74139 5.24 8.85339 5.24C8.97739 5.24 9.07339 5.286 9.14139 5.378L11.3254 8.216V5.624C11.3254 5.508 11.3574 5.416 11.4214 5.348C11.4894 5.276 11.5774 5.24 11.6854 5.24Z" fill="#FF5A5F"/>
</svg>
