<svg width="16" height="17" viewBox="0 0 16 17" fill="none" xmlns="http://www.w3.org/2000/svg">
<path fill-rule="evenodd" clip-rule="evenodd" d="M13.9997 3.16699H1.99967C1.82286 3.16699 1.65329 3.23723 1.52827 3.36225C1.40325 3.48728 1.33301 3.65685 1.33301 3.83366V14.367C1.33392 14.4322 1.35397 14.4958 1.39066 14.5497C1.42734 14.6037 1.47906 14.6457 1.53939 14.6705C1.59973 14.6954 1.66602 14.702 1.73007 14.6895C1.79411 14.677 1.85308 14.646 1.89967 14.6003L4.66634 11.8337H13.9997C14.1765 11.8337 14.3461 11.7634 14.4711 11.6384C14.5961 11.5134 14.6663 11.3438 14.6663 11.167V3.83366C14.6663 3.65685 14.5961 3.48728 14.4711 3.36225C14.3461 3.23723 14.1765 3.16699 13.9997 3.16699Z" fill="#F9F9F9"/>
<path d="M5.05484 9.536C4.93884 9.536 4.84484 9.5 4.77284 9.428C4.70484 9.356 4.67084 9.262 4.67084 9.146V5.636C4.67084 5.52 4.70284 5.43 4.76684 5.366C4.83484 5.302 4.92684 5.27 5.04284 5.27H7.14884C7.39284 5.27 7.51484 5.374 7.51484 5.582C7.51484 5.786 7.39284 5.888 7.14884 5.888H5.43284V7.04H7.02884C7.27284 7.04 7.39484 7.144 7.39484 7.352C7.39484 7.556 7.27284 7.658 7.02884 7.658H5.43284V9.146C5.43284 9.262 5.39884 9.356 5.33084 9.428C5.26284 9.5 5.17084 9.536 5.05484 9.536ZM11.4533 9.014C11.5013 9.086 11.5253 9.156 11.5253 9.224C11.5253 9.316 11.4873 9.392 11.4113 9.452C11.3393 9.512 11.2533 9.542 11.1533 9.542C11.0893 9.542 11.0273 9.528 10.9673 9.5C10.9113 9.468 10.8633 9.422 10.8233 9.362L10.0253 8.15C9.94528 8.022 9.85928 7.932 9.76728 7.88C9.67928 7.828 9.56328 7.802 9.41928 7.802H8.83128V9.146C8.83128 9.266 8.79728 9.362 8.72928 9.434C8.66128 9.502 8.56928 9.536 8.45328 9.536C8.33728 9.536 8.24328 9.502 8.17128 9.434C8.10328 9.362 8.06928 9.266 8.06928 9.146V5.636C8.06928 5.52 8.10128 5.43 8.16528 5.366C8.23328 5.302 8.32528 5.27 8.44128 5.27H9.94128C10.4213 5.27 10.7853 5.378 11.0333 5.594C11.2853 5.806 11.4113 6.114 11.4113 6.518C11.4113 6.846 11.3173 7.116 11.1293 7.328C10.9453 7.536 10.6833 7.67 10.3433 7.73C10.4593 7.758 10.5613 7.808 10.6493 7.88C10.7373 7.952 10.8233 8.052 10.9073 8.18L11.4533 9.014ZM9.83328 7.208C10.1253 7.208 10.3393 7.154 10.4753 7.046C10.6113 6.934 10.6793 6.764 10.6793 6.536C10.6793 6.304 10.6113 6.136 10.4753 6.032C10.3393 5.924 10.1253 5.87 9.83328 5.87H8.82528V7.208H9.83328Z" fill="#5A61FF"/>
</svg>
