<svg width="13" height="11" viewBox="0 0 13 11" fill="none" xmlns="http://www.w3.org/2000/svg">
<path d="M9.66732 1.50033H12.334V0.166992H2.33398C1.80355 0.166992 1.29484 0.377706 0.919771 0.752779C0.544698 1.12785 0.333984 1.63656 0.333984 2.16699H1.66732C1.66732 1.99018 1.73756 1.82061 1.86258 1.69559C1.9876 1.57056 2.15717 1.50033 2.33398 1.50033H3.66732C3.84413 1.50033 4.0137 1.57056 4.13872 1.69559C4.26375 1.82061 4.33398 1.99018 4.33398 2.16699V10.167H5.66732V2.16699C5.66732 1.99018 5.73756 1.82061 5.86258 1.69559C5.9876 1.57056 6.15717 1.50033 6.33398 1.50033H7.00065C7.17746 1.50033 7.34703 1.57056 7.47205 1.69559C7.59708 1.82061 7.66732 1.99018 7.66732 2.16699V8.50033C7.66863 8.90026 7.77186 9.29327 7.96724 9.64223C8.16262 9.9912 8.44371 10.2846 8.78398 10.4948C9.12424 10.7049 9.51246 10.8249 9.91197 10.8434C10.3115 10.8619 10.7091 10.7782 11.0673 10.6003C11.4598 10.4132 11.7888 10.1152 12.0139 9.74323C12.239 9.37123 12.3503 8.94148 12.334 8.50699H11.0006C11.0006 8.77221 10.8953 9.02656 10.7078 9.2141C10.5202 9.40164 10.2659 9.50699 10.0006 9.50699C9.73543 9.50699 9.48108 9.40164 9.29354 9.2141C9.10601 9.02656 9.00065 8.77221 9.00065 8.50699V2.16699C9.00065 1.99018 9.07089 1.82061 9.19591 1.69559C9.32094 1.57056 9.49051 1.50033 9.66732 1.50033Z" fill="black"/>
<path d="M0.993815 2.84017C1.36201 2.84017 1.66048 2.54169 1.66048 2.1735C1.66048 1.80531 1.36201 1.50684 0.993815 1.50684C0.625625 1.50684 0.327148 1.80531 0.327148 2.1735C0.327148 2.54169 0.625625 2.84017 0.993815 2.84017Z" fill="#149BB4"/>
<path d="M12.3268 1.48665C12.695 1.48665 12.9935 1.18818 12.9935 0.819987C12.9935 0.451797 12.695 0.15332 12.3268 0.15332C11.9586 0.15332 11.6602 0.451797 11.6602 0.819987C11.6602 1.18818 11.9586 1.48665 12.3268 1.48665Z" fill="#F9BF58"/>
<path d="M11.6608 9.17317C12.029 9.17317 12.3275 8.8747 12.3275 8.50651C12.3275 8.13832 12.029 7.83984 11.6608 7.83984C11.2926 7.83984 10.9941 8.13832 10.9941 8.50651C10.9941 8.8747 11.2926 9.17317 11.6608 9.17317Z" fill="#FF5A5F"/>
<path d="M4.99382 10.8197C5.36201 10.8197 5.66048 10.5212 5.66048 10.153C5.66048 9.7848 5.36201 9.48633 4.99382 9.48633C4.62563 9.48633 4.32715 9.7848 4.32715 10.153C4.32715 10.5212 4.62563 10.8197 4.99382 10.8197Z" fill="#454E9E"/>
</svg>
