<svg width="16" height="17" viewBox="0 0 16 17" fill="none" xmlns="http://www.w3.org/2000/svg">
<path fill-rule="evenodd" clip-rule="evenodd" d="M13.9997 3.16699H1.99967C1.82286 3.16699 1.65329 3.23723 1.52827 3.36225C1.40325 3.48728 1.33301 3.65685 1.33301 3.83366V14.367C1.33392 14.4322 1.35397 14.4958 1.39066 14.5497C1.42734 14.6037 1.47906 14.6457 1.53939 14.6705C1.59973 14.6954 1.66602 14.702 1.73007 14.6895C1.79411 14.677 1.85308 14.646 1.89967 14.6003L4.66634 11.8337H13.9997C14.1765 11.8337 14.3461 11.7634 14.4711 11.6384C14.5961 11.5134 14.6663 11.3438 14.6663 11.167V3.83366C14.6663 3.65685 14.5961 3.48728 14.4711 3.36225C14.3461 3.23723 14.1765 3.16699 13.9997 3.16699Z" fill="#F9BF58"/>
<path d="M5.17761 9.5C5.06161 9.5 4.96961 9.468 4.90161 9.404C4.83761 9.34 4.80561 9.25 4.80561 9.134V5.636C4.80561 5.52 4.83761 5.43 4.90161 5.366C4.96961 5.302 5.06161 5.27 5.17761 5.27H7.34361C7.45961 5.27 7.54961 5.296 7.61361 5.348C7.67761 5.4 7.70961 5.474 7.70961 5.57C7.70961 5.67 7.67761 5.748 7.61361 5.804C7.54961 5.856 7.45961 5.882 7.34361 5.882H5.56161V7.046H7.22361C7.33961 7.046 7.42961 7.072 7.49361 7.124C7.55761 7.176 7.58961 7.252 7.58961 7.352C7.58961 7.448 7.55761 7.522 7.49361 7.574C7.42961 7.626 7.33961 7.652 7.22361 7.652H5.56161V8.888H7.34361C7.45961 8.888 7.54961 8.916 7.61361 8.972C7.67761 9.024 7.70961 9.1 7.70961 9.2C7.70961 9.296 7.67761 9.37 7.61361 9.422C7.54961 9.474 7.45961 9.5 7.34361 9.5H5.17761ZM9.74422 9.554C9.43622 9.554 9.14422 9.514 8.86822 9.434C8.59622 9.35 8.37422 9.238 8.20222 9.098C8.11022 9.03 8.06422 8.934 8.06422 8.81C8.06422 8.726 8.08822 8.654 8.13622 8.594C8.18822 8.53 8.24822 8.498 8.31622 8.498C8.38822 8.498 8.47022 8.526 8.56222 8.582C8.73422 8.706 8.91422 8.796 9.10222 8.852C9.29022 8.908 9.49822 8.936 9.72622 8.936C10.0182 8.936 10.2422 8.886 10.3982 8.786C10.5542 8.682 10.6322 8.532 10.6322 8.336C10.6322 8.184 10.5582 8.068 10.4102 7.988C10.2662 7.904 10.0242 7.824 9.68422 7.748C9.33222 7.672 9.04622 7.584 8.82622 7.484C8.60622 7.384 8.44022 7.256 8.32822 7.1C8.21622 6.944 8.16022 6.746 8.16022 6.506C8.16022 6.258 8.23022 6.036 8.37022 5.84C8.51022 5.644 8.70422 5.492 8.95222 5.384C9.20422 5.272 9.48622 5.216 9.79822 5.216C10.3702 5.216 10.8362 5.368 11.1962 5.672C11.2482 5.716 11.2842 5.76 11.3042 5.804C11.3282 5.844 11.3402 5.896 11.3402 5.96C11.3402 6.044 11.3142 6.118 11.2622 6.182C11.2142 6.242 11.1562 6.272 11.0882 6.272C11.0482 6.272 11.0102 6.266 10.9742 6.254C10.9422 6.242 10.8982 6.22 10.8422 6.188C10.6782 6.068 10.5182 5.98 10.3622 5.924C10.2102 5.864 10.0222 5.834 9.79822 5.834C9.52622 5.834 9.31022 5.89 9.15022 6.002C8.99422 6.11 8.91622 6.262 8.91622 6.458C8.91622 6.622 8.98622 6.748 9.12622 6.836C9.26622 6.924 9.50422 7.006 9.84022 7.082C10.1962 7.162 10.4842 7.252 10.7042 7.352C10.9282 7.448 11.0982 7.572 11.2142 7.724C11.3342 7.876 11.3942 8.066 11.3942 8.294C11.3942 8.542 11.3242 8.762 11.1842 8.954C11.0482 9.142 10.8542 9.29 10.6022 9.398C10.3542 9.502 10.0682 9.554 9.74422 9.554Z" fill="#DD4F4F"/>
</svg>
