<svg width="27" height="30" viewBox="0 0 27 30" fill="none" xmlns="http://www.w3.org/2000/svg">
<mask id="mask0_387_428" style="mask-type:alpha" maskUnits="userSpaceOnUse" x="3" y="4" width="21" height="26">
<path d="M15.8485 19.0224V20.8838H16.2393C20.125 20.8838 23.275 24.1468 23.275 28.1719V29.0829H3.73151V28.1719C3.73151 24.1468 6.88148 20.8838 10.7672 20.8838H11.158V19.0224C9.47364 18.1935 8.26288 16.4995 8.06089 14.4947C7.4917 14.4113 7.0539 13.9046 7.0539 13.292V11.8749C7.0539 11.273 7.47649 10.7734 8.03107 10.677V10.0529C8.03107 6.92225 10.4811 4.38437 13.5033 4.38437C16.5255 4.38437 18.9754 6.92225 18.9754 10.0529V10.677C19.53 10.7734 19.9526 11.273 19.9526 11.8749V13.292C19.9526 13.9046 19.5148 14.4113 18.9456 14.4947C18.7436 16.4995 17.5329 18.1935 15.8485 19.0224Z" fill="white"/>
</mask>
<g mask="url(#mask0_387_428)">
<path d="M15.8485 19.0224V20.8838H16.2393C20.125 20.8838 23.275 24.1468 23.275 28.1719V29.0829H3.73151V28.1719C3.73151 24.1468 6.88148 20.8838 10.7672 20.8838H11.158V19.0224C9.47364 18.1935 8.26288 16.4995 8.06089 14.4947C7.4917 14.4113 7.0539 13.9046 7.0539 13.292V11.8749C7.0539 11.273 7.47649 10.7734 8.03107 10.677V10.0529C8.03107 6.92225 10.4811 4.38437 13.5033 4.38437C16.5255 4.38437 18.9754 6.92225 18.9754 10.0529V10.677C19.53 10.7734 19.9526 11.273 19.9526 11.8749V13.292C19.9526 13.9046 19.5148 14.4113 18.9456 14.4947C18.7436 16.4995 17.5329 18.1935 15.8485 19.0224Z" fill="#D0C6AC"/>
<path d="M29.5289 4.38437H3.73151V32.7269H29.5289V4.38437Z" fill="#FD9841"/>
<path fill-rule="evenodd" clip-rule="evenodd" d="M18.9754 12.381V14.7091C18.9754 17.8398 16.5254 20.3777 13.5032 20.3777C10.481 20.3777 8.03107 17.8398 8.03107 14.7091V12.381V13.8994C8.03107 17.03 10.481 19.5679 13.5032 19.5679C16.5254 19.5679 18.9754 17.03 18.9754 13.8994V12.381Z" fill="black" fill-opacity="0.1"/>
</g>
<mask id="mask1_387_428" style="mask-type:alpha" maskUnits="userSpaceOnUse" x="3" y="20" width="21" height="10">
<path fill-rule="evenodd" clip-rule="evenodd" d="M10.8837 20.889H10.7672C6.88148 20.889 3.73151 24.152 3.73151 28.1771V29.0829H23.275V28.1771C23.275 24.152 20.125 20.889 16.2393 20.889H16.1228C16.1352 20.9886 16.1416 21.0899 16.1416 21.1927C16.1416 22.5903 14.9604 23.7233 13.5033 23.7233C12.0461 23.7233 10.8649 22.5903 10.8649 21.1927C10.8649 21.0899 10.8713 20.9886 10.8837 20.889Z" fill="white"/>
</mask>
<g mask="url(#mask1_387_428)">
<path fill-rule="evenodd" clip-rule="evenodd" d="M10.8837 20.889H10.7672C6.88148 20.889 3.73151 24.152 3.73151 28.1771V29.0829H23.275V28.1771C23.275 24.152 20.125 20.889 16.2393 20.889H16.1228C16.1352 20.9886 16.1416 21.0899 16.1416 21.1927C16.1416 22.5903 14.9604 23.7233 13.5033 23.7233C12.0461 23.7233 10.8649 22.5903 10.8649 21.1927C10.8649 21.0899 10.8713 20.9886 10.8837 20.889Z" fill="#E6E6E6"/>
<path d="M26.402 17.9483H0.604553V29.0829H26.402V17.9483Z" fill="#262E33"/>
<path fill-rule="evenodd" clip-rule="evenodd" d="M10.453 20.8963C6.71306 21.0666 3.73148 24.2612 3.73148 28.1773V29.0831H10.5093C10.177 27.8603 9.98539 26.4218 9.98539 24.8823C9.98539 23.4321 10.1554 22.0714 10.453 20.8963ZM16.5948 29.0831H23.275V28.1773C23.275 24.2959 20.3459 21.1231 16.6525 20.9016C16.9492 22.0755 17.1188 23.4342 17.1188 24.8823C17.1188 26.4218 16.9272 27.8603 16.5948 29.0831Z" fill="#3A4C5A"/>
<path fill-rule="evenodd" clip-rule="evenodd" d="M18.2914 26.6535L19.2252 25.9281C19.3662 25.8185 19.5606 25.8203 19.6997 25.9324L20.3435 26.4511L18.2914 26.6535Z" fill="#E6E6E6"/>
<path fill-rule="evenodd" clip-rule="evenodd" d="M10.474 20.7826C10.0831 22.7396 10.246 25.5063 10.9626 29.0829H9.39911L8.03107 25.4389L8.61737 24.5278L8.03107 23.9205L9.8877 20.8838C10.0858 20.82 10.2813 20.7862 10.474 20.7826Z" fill="#2F4351"/>
<path fill-rule="evenodd" clip-rule="evenodd" d="M16.5325 20.7826C16.9234 22.7396 16.7605 25.5063 16.0439 29.0829H17.6074L18.9754 25.4389L18.3891 24.5278L18.9754 23.9205L17.1188 20.8838C16.9207 20.82 16.7252 20.7862 16.5325 20.7826Z" fill="#2F4351"/>
<path fill-rule="evenodd" clip-rule="evenodd" d="M15.8485 20.1286C16.5103 20.5939 16.9234 21.2539 16.9234 21.9859C16.9234 22.735 16.4907 23.4088 15.8016 23.8756L15.2211 23.4019L14.7736 23.4354L14.8713 23.1164L14.8637 23.1102C15.4598 22.7922 15.8485 22.2706 15.8485 21.6811V20.1286ZM11.1581 20.1286C10.4963 20.5939 10.0832 21.2539 10.0832 21.9859C10.0832 22.735 10.5159 23.4088 11.205 23.8756L11.7855 23.4019L12.233 23.4354L12.1353 23.1164L12.1429 23.1102C11.5468 22.7922 11.1581 22.2706 11.1581 21.6811V20.1286Z" fill="#F2F2F2"/>
</g>
<path d="M12.1353 15.9238C12.1353 16.4676 12.737 16.8348 13.5033 16.8348C14.2696 16.8348 14.8713 16.4676 14.8713 15.9238C14.8713 15.812 14.7785 15.7214 14.6759 15.7214C14.5496 15.7214 14.4932 15.813 14.4805 15.9238C14.3591 16.2212 14.0587 16.4012 13.5033 16.43C12.9479 16.4012 12.6475 16.2212 12.5261 15.9238C12.5134 15.813 12.457 15.7214 12.3307 15.7214C12.2281 15.7214 12.1353 15.812 12.1353 15.9238Z" fill="black" fill-opacity="0.6"/>
<path fill-rule="evenodd" clip-rule="evenodd" d="M12.3307 13.8994C12.3307 14.3466 12.8557 14.7092 13.5033 14.7092C14.1509 14.7092 14.6759 14.3466 14.6759 13.8994" fill="black" fill-opacity="0.16"/>
<path fill-rule="evenodd" clip-rule="evenodd" d="M9.61023 12.1226C9.79066 11.7381 10.1969 11.47 10.6692 11.47C11.1398 11.47 11.5449 11.7362 11.7263 12.1186C11.7802 12.2321 11.7035 12.3251 11.6262 12.2562C11.3867 12.0429 11.0465 11.9097 10.6692 11.9097C10.3037 11.9097 9.97311 12.0347 9.73505 12.2364C9.64801 12.3102 9.55745 12.2351 9.61023 12.1226Z" fill="black" fill-opacity="0.6"/>
<path fill-rule="evenodd" clip-rule="evenodd" d="M15.2779 12.1226C15.4583 11.7381 15.8646 11.47 16.3369 11.47C16.8075 11.47 17.2125 11.7362 17.3939 12.1186C17.4478 12.2321 17.3711 12.3251 17.2938 12.2562C17.0543 12.0429 16.7142 11.9097 16.3369 11.9097C15.9714 11.9097 15.6407 12.0347 15.4027 12.2364C15.3156 12.3102 15.2251 12.2351 15.2779 12.1226Z" fill="black" fill-opacity="0.6"/>
<path fill-rule="evenodd" clip-rule="evenodd" d="M10.2558 9.20043L10.3448 9.15967C10.857 8.94902 11.6334 9.03732 12.1081 9.27337C12.1635 9.30094 12.1257 9.39007 12.0689 9.38553C10.611 9.26901 9.62959 10.21 9.29615 10.8472C9.28627 10.8661 9.25639 10.8682 9.249 10.8506C9.02354 10.3122 9.68383 9.43503 10.2558 9.20043Z" fill="black" fill-opacity="0.6"/>
<path fill-rule="evenodd" clip-rule="evenodd" d="M16.7508 9.20043L16.6618 9.15967C16.1496 8.94902 15.3732 9.03732 14.8984 9.27337C14.843 9.30094 14.8809 9.39007 14.9377 9.38553C16.3955 9.26901 17.377 10.21 17.7104 10.8472C17.7203 10.8661 17.7502 10.8682 17.7576 10.8506C17.983 10.3122 17.3227 9.43503 16.7508 9.20043Z" fill="black" fill-opacity="0.6"/>
<mask id="mask2_387_428" style="mask-type:alpha" maskUnits="userSpaceOnUse" x="0" y="0" width="27" height="30">
<path d="M26.402 0.740326H0.604553V29.0829H26.402V0.740326Z" fill="white"/>
</mask>
<g mask="url(#mask2_387_428)">
<mask id="mask3_387_428" style="mask-type:alpha" maskUnits="userSpaceOnUse" x="7" y="10" width="13" height="10">
<path fill-rule="evenodd" clip-rule="evenodd" d="M15.2063 17.9654C14.9607 18.1976 14.699 18.302 14.3683 18.229C14.3114 18.2164 14.0794 17.7696 13.5032 17.7696C12.927 17.7696 12.6951 18.2164 12.6381 18.229C12.3074 18.302 12.0458 18.1976 11.8002 17.9654C11.3384 17.5288 10.9544 16.9268 11.1852 16.2699C11.3054 15.9276 11.501 15.5517 11.8568 15.4426C12.2367 15.3262 12.7701 15.4424 13.1529 15.3629C13.2769 15.3371 13.4124 15.2913 13.5032 15.2153C13.594 15.2913 13.7296 15.3371 13.8535 15.3629C14.2364 15.4424 14.7698 15.3262 15.1497 15.4426C15.5055 15.5517 15.701 15.9276 15.8213 16.2699C16.052 16.9268 15.6681 17.5288 15.2063 17.9654ZM18.9833 10.6602C18.6501 11.5105 18.7788 12.5691 18.7171 13.4617C18.667 14.1872 18.5198 15.2746 17.8979 15.7431C17.5799 15.9827 17.001 16.3854 16.5854 16.2731C16.2994 16.1958 16.2689 15.3459 15.893 15.0277C15.4666 14.6669 14.9341 14.5083 14.3973 14.5328C14.1656 14.5434 13.6971 14.5409 13.5032 14.7254C13.3093 14.5409 12.8409 14.5434 12.6092 14.5328C12.0724 14.5083 11.5399 14.6669 11.1135 15.0277C10.7376 15.3459 10.7071 16.1958 10.4211 16.2731C10.0055 16.3854 9.42665 15.9827 9.1086 15.7431C8.48667 15.2746 8.33948 14.1872 8.28932 13.4617C8.22768 12.5691 8.35639 11.5105 8.02314 10.6602C7.86102 10.6602 7.96794 12.2928 7.96794 12.2928V14.3534C7.97104 15.9009 8.90418 18.2171 10.9731 19.1015C11.4791 19.3178 12.6253 19.6691 13.5032 19.6691C14.3812 19.6691 15.5273 19.3513 16.0333 19.135C18.1023 18.2505 19.0354 15.9009 19.0386 14.3534V12.2928C19.0386 12.2928 19.1455 10.6602 18.9833 10.6602Z" fill="white"/>
</mask>
<g mask="url(#mask3_387_428)">
<path fill-rule="evenodd" clip-rule="evenodd" d="M15.2063 17.9654C14.9607 18.1976 14.699 18.302 14.3683 18.229C14.3114 18.2164 14.0794 17.7696 13.5032 17.7696C12.927 17.7696 12.6951 18.2164 12.6381 18.229C12.3074 18.302 12.0458 18.1976 11.8002 17.9654C11.3384 17.5288 10.9544 16.9268 11.1852 16.2699C11.3054 15.9276 11.501 15.5517 11.8568 15.4426C12.2367 15.3262 12.7701 15.4424 13.1529 15.3629C13.2769 15.3371 13.4124 15.2913 13.5032 15.2153C13.594 15.2913 13.7296 15.3371 13.8535 15.3629C14.2364 15.4424 14.7698 15.3262 15.1497 15.4426C15.5055 15.5517 15.701 15.9276 15.8213 16.2699C16.052 16.9268 15.6681 17.5288 15.2063 17.9654ZM18.9833 10.6602C18.6501 11.5105 18.7788 12.5691 18.7171 13.4617C18.667 14.1872 18.5198 15.2746 17.8979 15.7431C17.5799 15.9827 17.001 16.3854 16.5854 16.2731C16.2994 16.1958 16.2689 15.3459 15.893 15.0277C15.4666 14.6669 14.9341 14.5083 14.3973 14.5328C14.1656 14.5434 13.6971 14.5409 13.5032 14.7254C13.3093 14.5409 12.8409 14.5434 12.6092 14.5328C12.0724 14.5083 11.5399 14.6669 11.1135 15.0277C10.7376 15.3459 10.7071 16.1958 10.4211 16.2731C10.0055 16.3854 9.42665 15.9827 9.1086 15.7431C8.48667 15.2746 8.33948 14.1872 8.28932 13.4617C8.22768 12.5691 8.35639 11.5105 8.02314 10.6602C7.86102 10.6602 7.96794 12.2928 7.96794 12.2928V14.3534C7.97104 15.9009 8.90418 18.2171 10.9731 19.1015C11.4791 19.3178 12.6253 19.6691 13.5032 19.6691C14.3812 19.6691 15.5273 19.3513 16.0333 19.135C18.1023 18.2505 19.0354 15.9009 19.0386 14.3534V12.2928C19.0386 12.2928 19.1455 10.6602 18.9833 10.6602Z" fill="#331B0C"/>
<path d="M27.9654 8.02841H2.16803V32.7269H27.9654V8.02841Z" fill="#724133"/>
</g>
<mask id="mask4_387_428" style="mask-type:alpha" maskUnits="userSpaceOnUse" x="7" y="2" width="13" height="9">
<path fill-rule="evenodd" clip-rule="evenodd" d="M18.7636 8.22365C18.9353 8.32372 19.0712 9.3269 19.0778 9.71051C19.0819 9.94722 19.0856 10.8499 18.8439 10.7719C18.7703 10.7481 18.658 10.2702 18.642 9.99053C18.6261 9.71084 18.4727 8.75924 18.2374 8.32143C18.1836 8.22138 18.0296 8.04571 18.0961 7.96108C18.1787 7.85614 18.2588 7.91702 18.3595 7.95904C18.4685 8.00454 18.7443 8.21244 18.7636 8.22365ZM18.8422 7.92279C18.7693 8.02019 18.2715 7.74678 18.0638 7.62797C16.32 6.62992 15.9815 6.31254 13.2341 6.35396C10.4867 6.39538 8.60442 7.72879 8.49855 7.86518C8.42489 7.96007 8.33084 8.21344 8.25351 8.91923C8.17618 9.62502 8.27489 10.8908 7.99496 10.8892C7.75663 10.8879 7.70478 8.48159 7.80766 7.52699C7.82346 7.38043 7.88433 7.11825 7.84027 6.98641C7.80175 6.87125 7.61336 6.87149 7.64343 6.67962C7.67761 6.4612 7.89021 6.56969 7.9828 6.46526C8.15816 6.26743 7.88764 6.22061 7.84277 6.04754C7.77608 5.79028 7.9688 5.72393 8.14243 5.64269C8.33458 5.55287 8.30961 5.63176 8.46555 5.45581C8.25726 5.29766 8.18191 5.08219 8.46713 4.9666C8.58825 4.91751 8.90338 4.98249 8.99828 4.90873C9.02303 4.88949 9.03282 4.77923 9.04806 4.75667C9.19961 4.53209 9.16222 4.36951 9.14685 4.11739C9.1342 3.91107 9.1359 3.72168 9.37436 3.70107C9.53348 3.68733 9.66289 3.82199 9.80545 3.86164C9.96361 3.90564 9.9042 3.93775 10.0281 3.84941C10.2456 3.6942 10.0976 3.3918 10.2701 3.2114C10.5068 2.96383 10.662 3.32672 10.8521 3.3541C11.2647 3.41366 11.1322 2.97958 11.3765 2.82052C11.6685 2.63056 11.6967 3.04835 11.8791 3.06323C12.0371 3.07607 12.3216 2.7602 12.4594 2.70134C12.8681 2.52663 13.0706 3.01825 13.4597 2.95555C13.742 2.91004 13.8182 2.87287 14.073 3.03927C14.3203 3.20077 14.3791 3.08532 14.6592 3.083C14.857 3.08146 14.9782 3.25272 15.1437 3.27058C15.2263 3.27953 15.3053 3.19045 15.3938 3.19605C15.7102 3.21592 15.7302 3.63968 15.9815 3.75634C16.2112 3.86295 16.4811 3.71317 16.709 3.68546C17.2651 3.61786 16.8843 4.15586 16.9 4.47696C17.1183 4.52971 17.3398 4.31867 17.5571 4.35752C17.8992 4.41871 17.7701 4.78603 17.6908 5.03367C17.9279 5.02924 18.5467 4.75664 18.7003 5.10529C18.7795 5.28506 18.595 5.52505 18.598 5.7078C18.6023 5.96506 18.7847 6.17791 18.8493 6.42139C18.9364 6.75006 19.0606 7.63101 18.8422 7.92279Z" fill="white"/>
</mask>
<g mask="url(#mask4_387_428)">
<path fill-rule="evenodd" clip-rule="evenodd" d="M18.7636 8.22365C18.9353 8.32372 19.0712 9.3269 19.0778 9.71051C19.0819 9.94722 19.0856 10.8499 18.8439 10.7719C18.7703 10.7481 18.658 10.2702 18.642 9.99053C18.6261 9.71084 18.4727 8.75924 18.2374 8.32143C18.1836 8.22138 18.0296 8.04571 18.0961 7.96108C18.1787 7.85614 18.2588 7.91702 18.3595 7.95904C18.4685 8.00454 18.7443 8.21244 18.7636 8.22365ZM18.8422 7.92279C18.7693 8.02019 18.2715 7.74678 18.0638 7.62797C16.32 6.62992 15.9815 6.31254 13.2341 6.35396C10.4867 6.39538 8.60442 7.72879 8.49855 7.86518C8.42489 7.96007 8.33084 8.21344 8.25351 8.91923C8.17618 9.62502 8.27489 10.8908 7.99496 10.8892C7.75663 10.8879 7.70478 8.48159 7.80766 7.52699C7.82346 7.38043 7.88433 7.11825 7.84027 6.98641C7.80175 6.87125 7.61336 6.87149 7.64343 6.67962C7.67761 6.4612 7.89021 6.56969 7.9828 6.46526C8.15816 6.26743 7.88764 6.22061 7.84277 6.04754C7.77608 5.79028 7.9688 5.72393 8.14243 5.64269C8.33458 5.55287 8.30961 5.63176 8.46555 5.45581C8.25726 5.29766 8.18191 5.08219 8.46713 4.9666C8.58825 4.91751 8.90338 4.98249 8.99828 4.90873C9.02303 4.88949 9.03282 4.77923 9.04806 4.75667C9.19961 4.53209 9.16222 4.36951 9.14685 4.11739C9.1342 3.91107 9.1359 3.72168 9.37436 3.70107C9.53348 3.68733 9.66289 3.82199 9.80545 3.86164C9.96361 3.90564 9.9042 3.93775 10.0281 3.84941C10.2456 3.6942 10.0976 3.3918 10.2701 3.2114C10.5068 2.96383 10.662 3.32672 10.8521 3.3541C11.2647 3.41366 11.1322 2.97958 11.3765 2.82052C11.6685 2.63056 11.6967 3.04835 11.8791 3.06323C12.0371 3.07607 12.3216 2.7602 12.4594 2.70134C12.8681 2.52663 13.0706 3.01825 13.4597 2.95555C13.742 2.91004 13.8182 2.87287 14.073 3.03927C14.3203 3.20077 14.3791 3.08532 14.6592 3.083C14.857 3.08146 14.9782 3.25272 15.1437 3.27058C15.2263 3.27953 15.3053 3.19045 15.3938 3.19605C15.7102 3.21592 15.7302 3.63968 15.9815 3.75634C16.2112 3.86295 16.4811 3.71317 16.709 3.68546C17.2651 3.61786 16.8843 4.15586 16.9 4.47696C17.1183 4.52971 17.3398 4.31867 17.5571 4.35752C17.8992 4.41871 17.7701 4.78603 17.6908 5.03367C17.9279 5.02924 18.5467 4.75664 18.7003 5.10529C18.7795 5.28506 18.595 5.52505 18.598 5.7078C18.6023 5.96506 18.7847 6.17791 18.8493 6.42139C18.9364 6.75006 19.0606 7.63101 18.8422 7.92279Z" fill="#2E3257"/>
<path d="M26.402 0.740326H0.604553V29.0829H26.402V0.740326Z" fill="#2C1B18"/>
</g>
</g>
</svg>
