<?xml version="1.0" encoding="iso-8859-1"?>
<!-- Generator: Adobe Illustrator 17.1.0, SVG Export Plug-In . SVG Version: 6.00 Build 0)  -->
<!DOCTYPE svg PUBLIC "-//W3C//DTD SVG 1.1//EN" "http://www.w3.org/Graphics/SVG/1.1/DTD/svg11.dtd">
<svg version="1.1" id="Capa_1" xmlns="http://www.w3.org/2000/svg" xmlns:xlink="http://www.w3.org/1999/xlink" x="0px" y="0px"
	 viewBox="0 0 189.127 189.127" style="enable-background:new 0 0 189.127 189.127;" xml:space="preserve">
<path style="fill:#222220;" d="M177.688,0H11.438c-4.143,0-7.5,3.358-7.5,7.5v46.23c0,4.142,3.357,7.5,7.5,7.5s7.5-3.358,7.5-7.5V15
	h68.125v159.127H62.688c-4.143,0-7.5,3.358-7.5,7.5s3.357,7.5,7.5,7.5h63.75c4.143,0,7.5-3.358,7.5-7.5s-3.357-7.5-7.5-7.5h-24.375
	V15h68.125v38.73c0,4.142,3.357,7.5,7.5,7.5s7.5-3.358,7.5-7.5V7.5C185.188,3.358,181.831,0,177.688,0z"/>

</svg>
