<svg width="26" height="27" viewBox="0 0 26 27" fill="none" xmlns="http://www.w3.org/2000/svg">
<mask id="mask0_387_127" style="mask-type:alpha" maskUnits="userSpaceOnUse" x="3" y="4" width="20" height="23">
<path d="M15.1467 17.3875V19.0628H15.5237C19.2706 19.0628 22.308 21.9995 22.308 25.6221V26.442H3.46252V25.6221C3.46252 21.9995 6.5 19.0628 10.2469 19.0628H10.6238V17.3875C8.99958 16.6416 7.83207 15.117 7.63729 13.3126C7.08843 13.2376 6.66626 12.7816 6.66626 12.2302V10.9548C6.66626 10.4131 7.07376 9.96346 7.60854 9.87672V9.315C7.60854 6.49743 9.97101 4.21334 12.8853 4.21334C15.7995 4.21334 18.162 6.49743 18.162 9.315V9.87672C18.6968 9.96346 19.1043 10.4131 19.1043 10.9548V12.2302C19.1043 12.7816 18.6821 13.2376 18.1333 13.3126C17.9385 15.117 16.771 16.6416 15.1467 17.3875Z" fill="white"/>
</mask>
<g mask="url(#mask0_387_127)">
<path d="M15.1467 17.3875V19.0628H15.5237C19.2706 19.0628 22.308 21.9995 22.308 25.6221V26.442H3.46252V25.6221C3.46252 21.9995 6.5 19.0628 10.2469 19.0628H10.6238V17.3875C8.99958 16.6416 7.83207 15.117 7.63729 13.3126C7.08843 13.2376 6.66626 12.7816 6.66626 12.2302V10.9548C6.66626 10.4131 7.07376 9.96346 7.60854 9.87672V9.315C7.60854 6.49743 9.97101 4.21334 12.8853 4.21334C15.7995 4.21334 18.162 6.49743 18.162 9.315V9.87672C18.6968 9.96346 19.1043 10.4131 19.1043 10.9548V12.2302C19.1043 12.7816 18.6821 13.2376 18.1333 13.3126C17.9385 15.117 16.771 16.6416 15.1467 17.3875Z" fill="#D0C6AC"/>
<path d="M28.3386 4.21334H3.46252V29.7216H28.3386V4.21334Z" fill="#EDB98A"/>
<path fill-rule="evenodd" clip-rule="evenodd" d="M18.162 11.4103V13.5056C18.162 16.3232 15.7995 18.6073 12.8853 18.6073C9.971 18.6073 7.60852 16.3232 7.60852 13.5056V11.4103V12.7768C7.60852 15.5944 9.971 17.8785 12.8853 17.8785C15.7995 17.8785 18.162 15.5944 18.162 12.7768V11.4103Z" fill="black" fill-opacity="0.1"/>
</g>
<mask id="mask1_387_127" style="mask-type:alpha" maskUnits="userSpaceOnUse" x="3" y="19" width="20" height="8">
<path fill-rule="evenodd" clip-rule="evenodd" d="M16.0853 19.0902C19.5694 19.3662 22.308 22.1876 22.308 25.6273V26.4425H3.46252V25.6273C3.46252 22.1564 6.2509 19.3152 9.78005 19.0833C9.77721 19.1174 9.77577 19.1516 9.77577 19.1861C9.77577 20.2668 11.189 21.1429 12.9324 21.1429C14.6757 21.1429 16.089 20.2668 16.089 19.1861C16.089 19.1539 16.0878 19.122 16.0853 19.0902Z" fill="white"/>
</mask>
<g mask="url(#mask1_387_127)">
<path fill-rule="evenodd" clip-rule="evenodd" d="M16.0853 19.0902C19.5694 19.3662 22.308 22.1876 22.308 25.6273V26.4425H3.46252V25.6273C3.46252 22.1564 6.2509 19.3152 9.78005 19.0833C9.77721 19.1174 9.77577 19.1516 9.77577 19.1861C9.77577 20.2668 11.189 21.1429 12.9324 21.1429C14.6757 21.1429 16.089 20.2668 16.089 19.1861C16.089 19.1539 16.0878 19.122 16.0853 19.0902Z" fill="#E6E6E6"/>
<path d="M25.3233 16.4209H0.447205V26.442H25.3233V16.4209Z" fill="#262E33"/>
<g opacity="0.6">
<g opacity="0.6">
<path opacity="0.6" d="M12.9324 21.7741C14.995 21.7741 16.6671 20.6764 16.6671 19.3222C16.6671 17.9681 14.995 16.8703 12.9324 16.8703C10.8698 16.8703 9.19766 17.9681 9.19766 19.3222C9.19766 20.6764 10.8698 21.7741 12.9324 21.7741Z" fill="black" fill-opacity="0.16"/>
</g>
</g>
</g>
<path fill-rule="evenodd" clip-rule="evenodd" d="M9.94395 19.0741C6.33763 19.2273 3.46252 22.1025 3.46252 25.6269H3.46252V26.4421H9.99831C9.67784 25.3416 9.49309 24.0469 9.49309 22.6614C9.49309 21.3562 9.65704 20.1316 9.94395 19.0741ZM15.8665 26.4421H22.308V25.6269C22.308 22.1336 19.4836 19.2782 15.9221 19.0788C16.2082 20.1353 16.3717 21.3581 16.3717 22.6614C16.3717 24.0469 16.1869 25.3416 15.8665 26.4421Z" fill="#3A4C5A"/>
<path fill-rule="evenodd" clip-rule="evenodd" d="M17.5024 24.2556L18.4028 23.6027C18.5388 23.5041 18.7262 23.5056 18.8604 23.6065L19.4812 24.0734L17.5024 24.2556Z" fill="#E6E6E6"/>
<path fill-rule="evenodd" clip-rule="evenodd" d="M9.96421 18.9717C9.5873 20.733 9.74435 23.2231 10.4353 26.442H8.92771L7.60852 23.1623L8.17389 22.3424L7.60852 21.7958L9.39884 19.0628C9.58991 19.0053 9.77836 18.975 9.96421 18.9717Z" fill="#2F4351"/>
<path fill-rule="evenodd" clip-rule="evenodd" d="M15.8063 18.9717C16.1832 20.733 16.0262 23.2231 15.3352 26.442H16.8428L18.162 23.1623L17.5966 22.3424L18.162 21.7958L16.3717 19.0628C16.1806 19.0053 15.9921 18.975 15.8063 18.9717Z" fill="#2F4351"/>
<path fill-rule="evenodd" clip-rule="evenodd" d="M11.5661 14.5078C11.5661 15.2122 12.1567 15.7832 12.8853 15.7832C13.6138 15.7832 14.2044 15.2122 14.2044 14.5078" fill="black" fill-opacity="0.7"/>
<path fill-rule="evenodd" clip-rule="evenodd" d="M11.7545 12.7768C11.7545 13.1794 12.2608 13.5057 12.8852 13.5057C13.5097 13.5057 14.016 13.1794 14.016 12.7768" fill="black" fill-opacity="0.16"/>
<path d="M10.4354 11.6836C10.7476 11.6836 11.0007 11.4389 11.0007 11.137C11.0007 10.8351 10.7476 10.5904 10.4354 10.5904C10.1231 10.5904 9.87 10.8351 9.87 11.137C9.87 11.4389 10.1231 11.6836 10.4354 11.6836Z" fill="black" fill-opacity="0.6"/>
<path d="M15.3352 11.6836C15.6474 11.6836 15.9005 11.4389 15.9005 11.137C15.9005 10.8351 15.6474 10.5904 15.3352 10.5904C15.0229 10.5904 14.7698 10.8351 14.7698 11.137C14.7698 11.4389 15.0229 11.6836 15.3352 11.6836Z" fill="black" fill-opacity="0.6"/>
<path d="M9.08131 9.96715C9.4502 9.4653 10.4615 9.18389 11.3327 9.39072C11.4337 9.41471 11.5358 9.35495 11.5606 9.25722C11.5855 9.1595 11.5236 9.06082 11.4226 9.03683C10.4109 8.79663 9.23979 9.1225 8.77408 9.75605C8.71379 9.83808 8.73369 9.95183 8.81853 10.0101C8.90337 10.0684 9.02102 10.0492 9.08131 9.96715Z" fill="black" fill-opacity="0.6"/>
<path d="M16.6892 9.96716C16.3203 9.46531 15.309 9.18389 14.4379 9.39072C14.3368 9.41472 14.2347 9.35496 14.2099 9.25723C14.1851 9.15951 14.2469 9.06083 14.348 9.03683C15.3597 8.79664 16.5307 9.12251 16.9965 9.75606C17.0567 9.83809 17.0368 9.95183 16.952 10.0101C16.8672 10.0684 16.7495 10.0492 16.6892 9.96716Z" fill="black" fill-opacity="0.6"/>
<mask id="mask2_387_127" style="mask-type:alpha" maskUnits="userSpaceOnUse" x="0" y="0" width="26" height="27">
<path d="M25.3233 0.933701H0.447205V26.442H25.3233V0.933701Z" fill="white"/>
</mask>
<g mask="url(#mask2_387_127)">
<mask id="mask3_387_127" style="mask-type:alpha" maskUnits="userSpaceOnUse" x="1" y="2" width="23" height="25">
<path fill-rule="evenodd" clip-rule="evenodd" d="M22.8154 18.7718C22.3091 19.2922 21.8038 19.6211 21.821 20.156C21.8508 21.2391 25.9301 24.4424 22.308 26.442H3.3688C-0.253222 24.4424 3.82598 21.2391 3.85584 20.156C3.87307 19.6211 3.36774 19.2922 2.8614 18.7718C2.35506 18.2515 1.84771 17.5396 1.86091 16.2387C1.94965 13.5942 4.81673 13.8325 4.80081 12.048C4.81673 10.317 3.72768 9.60294 4.80081 6.30866C5.89733 2.98705 8.73141 2.18799 12.7913 2.11947V2.11801C12.807 2.11823 12.8227 2.11846 12.8384 2.11871C12.8541 2.11846 12.8698 2.11823 12.8855 2.11801V2.11947C16.9454 2.18799 19.7795 2.98705 20.876 6.30866C21.9492 9.60294 20.8601 10.317 20.876 12.048C20.8601 13.8325 23.7272 13.5942 23.8159 16.2387C23.8291 17.5396 23.3218 18.2515 22.8154 18.7718ZM19.0934 10.8022C17.0656 9.74657 15.3248 8.23492 14.1899 6.51841C12.4861 8.85254 9.07188 9.27261 6.68738 10.7435C6.67352 10.8118 6.66626 10.8825 6.66626 10.9548V12.1391C6.66626 12.6874 7.08377 13.1414 7.62819 13.2202C7.79245 15.0648 8.97194 16.6289 10.6238 17.3875V19.0628H10.2469C6.5 19.0628 3.46252 21.9995 3.46252 25.6221V26.442H22.308V25.6221C22.308 21.9995 19.2706 19.0628 15.5236 19.0628H15.1467V17.3875C16.7986 16.6289 17.9781 15.0648 18.1424 13.2202C18.6868 13.1414 19.1043 12.6874 19.1043 12.1391V10.9548C19.1043 10.903 19.1006 10.8521 19.0934 10.8022Z" fill="white"/>
</mask>
<g mask="url(#mask3_387_127)">
<path fill-rule="evenodd" clip-rule="evenodd" d="M22.8154 18.7718C22.3091 19.2922 21.8038 19.6211 21.821 20.156C21.8508 21.2391 25.9301 24.4424 22.308 26.442H3.3688C-0.253222 24.4424 3.82598 21.2391 3.85584 20.156C3.87307 19.6211 3.36774 19.2922 2.8614 18.7718C2.35506 18.2515 1.84771 17.5396 1.86091 16.2387C1.94965 13.5942 4.81673 13.8325 4.80081 12.048C4.81673 10.317 3.72768 9.60294 4.80081 6.30866C5.89733 2.98705 8.73141 2.18799 12.7913 2.11947V2.11801C12.807 2.11823 12.8227 2.11846 12.8384 2.11871C12.8541 2.11846 12.8698 2.11823 12.8855 2.11801V2.11947C16.9454 2.18799 19.7795 2.98705 20.876 6.30866C21.9492 9.60294 20.8601 10.317 20.876 12.048C20.8601 13.8325 23.7272 13.5942 23.8159 16.2387C23.8291 17.5396 23.3218 18.2515 22.8154 18.7718ZM19.0934 10.8022C17.0656 9.74657 15.3248 8.23492 14.1899 6.51841C12.4861 8.85254 9.07188 9.27261 6.68738 10.7435C6.67352 10.8118 6.66626 10.8825 6.66626 10.9548V12.1391C6.66626 12.6874 7.08377 13.1414 7.62819 13.2202C7.79245 15.0648 8.97194 16.6289 10.6238 17.3875V19.0628H10.2469C6.5 19.0628 3.46252 21.9995 3.46252 25.6221V26.442H22.308V25.6221C22.308 21.9995 19.2706 19.0628 15.5236 19.0628H15.1467V17.3875C16.7986 16.6289 17.9781 15.0648 18.1424 13.2202C18.6868 13.1414 19.1043 12.6874 19.1043 12.1391V10.9548C19.1043 10.903 19.1006 10.8521 19.0934 10.8022Z" fill="#314756"/>
<path d="M26.7367 2.11801H1.86066V27.6263H26.7367V2.11801Z" fill="#4A312C"/>
</g>
<mask id="mask4_387_127" style="mask-type:alpha" maskUnits="userSpaceOnUse" x="1" y="2" width="23" height="25">
<path fill-rule="evenodd" clip-rule="evenodd" d="M22.8154 18.7718C22.3091 19.2922 21.8038 19.6211 21.821 20.156C21.8508 21.2391 25.9301 24.4424 22.308 26.442H3.3688C-0.253222 24.4424 3.82598 21.2391 3.85584 20.156C3.87307 19.6211 3.36774 19.2922 2.8614 18.7718C2.35506 18.2515 1.84771 17.5396 1.86091 16.2387C1.94965 13.5942 4.81673 13.8325 4.80081 12.048C4.81673 10.317 3.72768 9.60294 4.80081 6.30866C5.89733 2.98705 8.73141 2.18799 12.7913 2.11947V2.11801C12.807 2.11823 12.8227 2.11846 12.8384 2.11871C12.8541 2.11846 12.8698 2.11823 12.8855 2.11801V2.11947C16.9454 2.18799 19.7795 2.98705 20.876 6.30866C21.9492 9.60294 20.8601 10.317 20.876 12.048C20.8601 13.8325 23.7272 13.5942 23.8159 16.2387C23.8291 17.5396 23.3218 18.2515 22.8154 18.7718ZM10.6238 19.0628H10.2469C6.5 19.0628 3.46252 21.9995 3.46252 25.6221V26.442H22.308V25.6221C22.308 21.9995 19.2706 19.0628 15.5236 19.0628H15.1467V14.8722H10.6238V19.0628Z" fill="white"/>
</mask>
<g mask="url(#mask4_387_127)">
<path fill-rule="evenodd" clip-rule="evenodd" d="M4.69678 12.5998C4.4731 12.8755 4.172 13.2805 4.15619 13.25C4.33265 13.0329 4.4401 12.7779 4.43691 12.4522C4.45355 10.8031 3.31519 10.1228 4.43691 6.9845C4.49992 6.81054 4.60332 6.64614 4.74267 6.49131C3.76812 9.63009 4.81642 10.3495 4.80079 12.048C4.80265 12.2571 4.76495 12.4384 4.69678 12.5998ZM20.9341 6.49131C21.0735 6.64614 21.1769 6.81054 21.2399 6.9845C22.197 9.66237 21.5086 10.5506 21.2964 11.778C21.2682 11.8514 21.2899 11.9378 21.2602 12.0119C18.37 11.0592 15.7677 9.27488 14.2511 7.18432C12.1042 9.86486 7.35923 9.89561 5.03363 12.2244C5.07009 12.1748 5.10471 12.1286 5.13585 12.0887C7.25932 9.36304 12.0605 9.43563 14.1899 6.51841C15.6408 8.71286 18.1304 10.5858 20.8955 11.5859C20.9239 11.5081 20.9031 11.4174 20.93 11.3404C21.1286 10.0803 21.763 9.16076 20.9341 6.49131Z" fill="black" fill-opacity="0.16"/>
</g>
<path fill-rule="evenodd" clip-rule="evenodd" d="M5.13585 12.0887C7.25932 9.36304 12.0605 9.43562 14.1899 6.51841C15.6408 8.71285 18.1304 10.5858 20.8955 11.5858C20.9239 11.5081 20.9031 11.4174 20.93 11.3404C21.1331 10.0519 21.7917 9.1196 20.876 6.30866C19.7795 2.98705 16.9454 2.18799 12.8855 2.11947C12.8227 2.11846 12.807 2.11823 12.7913 2.11801C8.73139 2.18799 5.89731 2.98705 4.80079 6.30866C3.72766 9.60294 4.81672 10.317 4.80079 12.048C4.80384 12.3899 4.70105 12.6576 4.53223 12.8855C4.54953 12.9221 4.92362 12.3611 5.13585 12.0887Z" fill="white" fill-opacity="0.1"/>
</g>
</svg>
