<svg width="105" height="19" viewBox="0 0 105 19" fill="none" xmlns="http://www.w3.org/2000/svg">
<path d="M1.50543 14.0829H9.79746" stroke="#A37CD5" stroke-width="2" stroke-linecap="round"/>
<path d="M1.50543 6.52487H6.11211" stroke="#4A40D7" stroke-width="2" stroke-linecap="round"/>
<path d="M1.50543 10.3039H7.95479" stroke="#A6DED5" stroke-width="2" stroke-linecap="round"/>
<path d="M15.5401 4.99235H22.3561C22.7614 4.99235 22.9641 5.19502 22.9641 5.60035C22.9641 5.99502 22.7614 6.19235 22.3561 6.19235H19.6361V15.2484C19.6361 15.6537 19.4281 15.8564 19.0121 15.8564H18.8681C18.4521 15.8564 18.2441 15.6537 18.2441 15.2484V6.19235H15.5401C15.1348 6.19235 14.9321 5.99502 14.9321 5.60035C14.9321 5.19502 15.1348 4.99235 15.5401 4.99235ZM23.5299 11.9364C23.5299 10.603 23.9032 9.58435 24.6499 8.88035C25.3965 8.17635 26.2552 7.82435 27.2259 7.82435C28.1965 7.82435 28.9645 8.07502 29.5299 8.57635C30.0952 9.06702 30.3779 9.68035 30.3779 10.4164C30.3779 11.1524 30.0845 11.7284 29.4979 12.1444C28.9219 12.5497 28.1752 12.7524 27.2579 12.7524C26.3405 12.7524 25.5139 12.6084 24.7779 12.3204C24.7779 13.099 25.0445 13.7284 25.5779 14.2084C26.1112 14.6777 26.7619 14.9124 27.5299 14.9124C28.7245 14.9124 29.4712 14.5444 29.7699 13.8084C29.9512 13.8084 30.1059 13.8617 30.2339 13.9684C30.3619 14.0644 30.4259 14.2084 30.4259 14.4004C30.4259 14.7737 30.1485 15.131 29.5939 15.4724C29.0499 15.8137 28.3565 15.9844 27.5139 15.9844C26.3832 15.9844 25.4339 15.643 24.6659 14.9604C23.9085 14.2777 23.5299 13.2697 23.5299 11.9364ZM29.1619 10.3684C29.1619 9.95235 28.9805 9.60035 28.6179 9.31235C28.2659 9.02435 27.7752 8.88035 27.1459 8.88035C26.5272 8.88035 25.9832 9.13102 25.5139 9.63235C25.0445 10.1337 24.8045 10.699 24.7939 11.3284C25.5619 11.5844 26.3245 11.7124 27.0819 11.7124C28.4685 11.7124 29.1619 11.2644 29.1619 10.3684ZM34.4202 7.84035C36.6816 7.84035 37.8122 8.89102 37.8122 10.9924V14.1604C37.8122 14.747 38.0362 15.1204 38.4842 15.2804C38.3242 15.6857 38.0256 15.8884 37.5882 15.8884C37.2682 15.8884 37.0122 15.7764 36.8202 15.5524C36.6389 15.3177 36.5482 15.0137 36.5482 14.6404C35.8762 15.5364 35.0069 15.9844 33.9402 15.9844C33.0762 15.9844 32.3936 15.7657 31.8922 15.3284C31.4016 14.8804 31.1562 14.283 31.1562 13.5364C31.1562 12.779 31.4442 12.1657 32.0202 11.6964C32.6069 11.227 33.3962 10.9924 34.3882 10.9924C34.9856 10.9924 35.4869 11.0564 35.8922 11.1844C36.2229 11.3017 36.4202 11.3764 36.4842 11.4084V10.7044C36.4842 10.0537 36.3189 9.59502 35.9882 9.32835C35.6576 9.05102 35.1562 8.91235 34.4842 8.91235C33.5349 8.91235 32.7989 9.27502 32.2762 10.0004C31.8282 9.93635 31.6042 9.72835 31.6042 9.37635C31.6042 8.97102 31.8816 8.61369 32.4362 8.30435C32.9909 7.99502 33.6522 7.84035 34.4202 7.84035ZM36.4842 12.4324C35.8122 12.1337 35.1509 11.9844 34.5002 11.9844C33.8496 11.9844 33.3482 12.123 32.9962 12.4004C32.6442 12.6777 32.4682 13.0404 32.4682 13.4884C32.4682 13.9257 32.6176 14.2777 32.9162 14.5444C33.2256 14.8004 33.6736 14.9284 34.2602 14.9284C34.8576 14.9284 35.3749 14.715 35.8122 14.2884C36.2602 13.8617 36.4842 13.3444 36.4842 12.7364V12.4324ZM40.2951 8.73635C40.6898 8.42702 41.1111 8.19769 41.5591 8.04835C42.0071 7.89902 42.5511 7.82435 43.1911 7.82435C43.8311 7.82435 44.3911 7.96835 44.8711 8.25635C45.3618 8.54435 45.6071 8.85369 45.6071 9.18435C45.6071 9.58969 45.3778 9.81902 44.9191 9.87235C44.8124 9.63769 44.5724 9.42435 44.1991 9.23235C43.8258 9.02969 43.3831 8.92835 42.8711 8.92835C42.1564 8.92835 41.5644 9.18435 41.0951 9.69635C40.6258 10.1977 40.3911 10.9337 40.3911 11.9044C40.3911 12.875 40.6311 13.6164 41.1111 14.1284C41.5911 14.6404 42.1671 14.8964 42.8391 14.8964C43.9058 14.8964 44.6258 14.5497 44.9991 13.8564C45.2018 13.8564 45.3724 13.9204 45.5111 14.0484C45.6498 14.1657 45.7191 14.3204 45.7191 14.5124C45.7191 14.8857 45.4631 15.227 44.9511 15.5364C44.4391 15.835 43.8524 15.9844 43.1911 15.9844C42.5404 15.9844 41.9858 15.9097 41.5271 15.7604C41.0791 15.6004 40.6631 15.3657 40.2791 15.0564C39.8951 14.7364 39.5911 14.3097 39.3671 13.7764C39.1431 13.243 39.0311 12.6244 39.0311 11.9204C39.0311 11.2057 39.1431 10.5764 39.3671 10.0324C39.6018 9.47769 39.9111 9.04569 40.2951 8.73635ZM47.417 4.64035H47.529C47.9343 4.64035 48.137 4.84302 48.137 5.24835V9.56835C48.3183 9.09902 48.6277 8.69902 49.065 8.36835C49.5023 8.03769 50.0143 7.87235 50.601 7.87235C51.497 7.87235 52.2117 8.12835 52.745 8.64035C53.2783 9.14169 53.545 9.95769 53.545 11.0884V15.2484C53.545 15.4617 53.497 15.6164 53.401 15.7124C53.305 15.8084 53.1503 15.8564 52.937 15.8564H52.809C52.4143 15.8564 52.217 15.6537 52.217 15.2484V11.1684C52.217 9.68569 51.577 8.94435 50.297 8.94435C49.625 8.94435 49.097 9.22169 48.713 9.77635C48.3397 10.331 48.153 11.0297 48.153 11.8724V15.2484C48.153 15.6537 47.945 15.8564 47.529 15.8564H47.417C47.2037 15.8564 47.049 15.8084 46.953 15.7124C46.857 15.6164 46.809 15.4617 46.809 15.2484V5.24835C46.809 4.84302 47.0117 4.64035 47.417 4.64035ZM54.7042 11.9364C54.7042 10.603 55.0776 9.58435 55.8242 8.88035C56.5709 8.17635 57.4296 7.82435 58.4002 7.82435C59.3709 7.82435 60.1389 8.07502 60.7042 8.57635C61.2696 9.06702 61.5522 9.68035 61.5522 10.4164C61.5522 11.1524 61.2589 11.7284 60.6722 12.1444C60.0962 12.5497 59.3496 12.7524 58.4322 12.7524C57.5149 12.7524 56.6882 12.6084 55.9522 12.3204C55.9522 13.099 56.2189 13.7284 56.7522 14.2084C57.2856 14.6777 57.9362 14.9124 58.7042 14.9124C59.8989 14.9124 60.6456 14.5444 60.9442 13.8084C61.1256 13.8084 61.2802 13.8617 61.4082 13.9684C61.5362 14.0644 61.6002 14.2084 61.6002 14.4004C61.6002 14.7737 61.3229 15.131 60.7682 15.4724C60.2242 15.8137 59.5309 15.9844 58.6882 15.9844C57.5576 15.9844 56.6082 15.643 55.8402 14.9604C55.0829 14.2777 54.7042 13.2697 54.7042 11.9364ZM60.3362 10.3684C60.3362 9.95235 60.1549 9.60035 59.7922 9.31235C59.4402 9.02435 58.9496 8.88035 58.3202 8.88035C57.7016 8.88035 57.1576 9.13102 56.6882 9.63235C56.2189 10.1337 55.9789 10.699 55.9682 11.3284C56.7362 11.5844 57.4989 11.7124 58.2562 11.7124C59.6429 11.7124 60.3362 11.2644 60.3362 10.3684ZM63.4026 7.96835H63.4986C63.9039 7.96835 64.1066 8.16569 64.1066 8.56035V9.42435C64.2879 9.01902 64.5759 8.65635 64.9706 8.33635C65.3759 8.01635 65.8079 7.85635 66.2666 7.85635C66.7253 7.85635 67.0719 7.94702 67.3066 8.12835C67.5519 8.30969 67.6746 8.53369 67.6746 8.80035C67.6746 9.05635 67.5626 9.25902 67.3386 9.40835C67.0079 9.13102 66.6559 8.99235 66.2826 8.99235C65.6213 8.99235 65.0986 9.26435 64.7146 9.80835C64.3306 10.3417 64.1386 11.0137 64.1386 11.8244V15.2484C64.1386 15.4617 64.0906 15.6164 63.9946 15.7124C63.8986 15.8084 63.7439 15.8564 63.5306 15.8564H63.4026C63.1893 15.8564 63.0346 15.8084 62.9386 15.7124C62.8426 15.6164 62.7946 15.4617 62.7946 15.2484V8.56035C62.7946 8.16569 62.9973 7.96835 63.4026 7.96835ZM68.6226 4.99235H75.4386C75.8439 4.99235 76.0466 5.19502 76.0466 5.60035C76.0466 5.99502 75.8439 6.19235 75.4386 6.19235H72.7186V15.2484C72.7186 15.6537 72.5106 15.8564 72.0946 15.8564H71.9506C71.5346 15.8564 71.3266 15.6537 71.3266 15.2484V6.19235H68.6226C68.2173 6.19235 68.0146 5.99502 68.0146 5.60035C68.0146 5.19502 68.2173 4.99235 68.6226 4.99235ZM77.9884 7.96835H78.0844C78.4897 7.96835 78.6924 8.16569 78.6924 8.56035V15.2484C78.6924 15.6537 78.4897 15.8564 78.0844 15.8564H77.9884C77.583 15.8564 77.3804 15.6537 77.3804 15.2484V8.56035C77.3804 8.16569 77.583 7.96835 77.9884 7.96835ZM77.1564 5.71235C77.1564 5.46702 77.2417 5.25902 77.4124 5.08835C77.583 4.90702 77.7857 4.81635 78.0204 4.81635C78.2657 4.81635 78.4737 4.90702 78.6444 5.08835C78.8257 5.25902 78.9164 5.46702 78.9164 5.71235C78.9164 5.94702 78.831 6.15502 78.6604 6.33635C78.4897 6.50702 78.2817 6.59235 78.0364 6.59235C77.791 6.59235 77.583 6.50702 77.4124 6.33635C77.2417 6.16569 77.1564 5.95769 77.1564 5.71235ZM81.2639 7.96835H81.3599C81.7759 7.96835 81.9839 8.17102 81.9839 8.57635V9.24835C82.4745 8.32035 83.2265 7.85635 84.2399 7.85635C84.8905 7.85635 85.4292 8.03235 85.8559 8.38435C86.2932 8.72569 86.5919 9.20569 86.7519 9.82435C86.9225 9.20569 87.2372 8.72035 87.6959 8.36835C88.1545 8.01635 88.6825 7.84035 89.2799 7.84035C91.1145 7.84035 92.0319 8.91235 92.0319 11.0564V15.2644C92.0319 15.659 91.8185 15.8564 91.3919 15.8564H91.2959C90.8905 15.8564 90.6879 15.659 90.6879 15.2644V11.1364C90.6879 9.67502 90.1332 8.94435 89.0239 8.94435C88.2452 8.94435 87.7119 9.22702 87.4239 9.79235C87.1465 10.3577 87.0079 11.1257 87.0079 12.0964V15.2644C87.0079 15.659 86.7999 15.8564 86.3839 15.8564H86.2719C85.8665 15.8564 85.6639 15.659 85.6639 15.2644V11.1364C85.6639 9.67502 85.1039 8.94435 83.9839 8.94435C82.6505 8.94435 81.9839 9.97902 81.9839 12.0484V15.2644C81.9839 15.659 81.7759 15.8564 81.3599 15.8564H81.2639C80.8585 15.8564 80.6559 15.659 80.6559 15.2644V8.57635C80.6559 8.17102 80.8585 7.96835 81.2639 7.96835ZM93.0667 11.9364C93.0667 10.603 93.4401 9.58435 94.1867 8.88035C94.9334 8.17635 95.7921 7.82435 96.7627 7.82435C97.7334 7.82435 98.5014 8.07502 99.0667 8.57635C99.6321 9.06702 99.9147 9.68035 99.9147 10.4164C99.9147 11.1524 99.6214 11.7284 99.0347 12.1444C98.4587 12.5497 97.7121 12.7524 96.7947 12.7524C95.8774 12.7524 95.0507 12.6084 94.3147 12.3204C94.3147 13.099 94.5814 13.7284 95.1147 14.2084C95.6481 14.6777 96.2987 14.9124 97.0667 14.9124C98.2614 14.9124 99.0081 14.5444 99.3067 13.8084C99.4881 13.8084 99.6427 13.8617 99.7707 13.9684C99.8987 14.0644 99.9627 14.2084 99.9627 14.4004C99.9627 14.7737 99.6854 15.131 99.1307 15.4724C98.5867 15.8137 97.8934 15.9844 97.0507 15.9844C95.9201 15.9844 94.9707 15.643 94.2027 14.9604C93.4454 14.2777 93.0667 13.2697 93.0667 11.9364ZM98.6987 10.3684C98.6987 9.95235 98.5174 9.60035 98.1547 9.31235C97.8027 9.02435 97.3121 8.88035 96.6827 8.88035C96.0641 8.88035 95.5201 9.13102 95.0507 9.63235C94.5814 10.1337 94.3414 10.699 94.3307 11.3284C95.0987 11.5844 95.8614 11.7124 96.6187 11.7124C98.0054 11.7124 98.6987 11.2644 98.6987 10.3684Z" fill="#2E2960"/>
</svg>
